<svg width="75" height="103" viewBox="0 0 75 103" fill="none" xmlns="http://www.w3.org/2000/svg">
<path d="M22.4007 16.9617L21.269 13.7442H14.8179L13.7111 16.9617H10L16.3469 0H19.6449L26.1967 16.9617H22.4007ZM18.0253 4.4824L15.9135 10.5504H20.1644L18.0253 4.4824Z" fill="#FF5618"/>
<path d="M32.6941 13.9634H34.231V16.9618H31.8328C30.4626 16.9618 29.3803 16.5654 28.5858 15.7726C27.7913 14.9798 27.394 13.8923 27.394 12.5099V7.20199H24.972V6.48033L30.2257 1.23901H30.718V4.49606H34.2265V7.20651H30.7746V12.0627C30.7746 12.6711 30.9402 13.1405 31.2714 13.471C31.6027 13.8015 32.0769 13.9668 32.6941 13.9668" fill="#FF5618"/>
<path d="M40.0188 0H36.6417V16.9629H40.0188V0Z" fill="#FF5618"/>
<path d="M52.638 4.4746H55.1687V16.9393H52.5135L52.2204 15.8235C51.0834 16.815 49.7354 17.3108 48.1766 17.3108C47.0022 17.3267 45.8447 17.0313 44.8221 16.4548C43.8336 15.897 43.0201 15.0758 42.4725 14.0831C41.9021 13.0501 41.6104 11.8869 41.626 10.7075C41.6101 9.53502 41.9015 8.37877 42.4714 7.35331C43.0205 6.36614 43.834 5.55085 44.8209 4.99862C45.8445 4.42508 47.0017 4.13134 48.1755 4.14709C49.7645 4.14709 51.1313 4.65416 52.2759 5.66832L52.638 4.4746ZM46.0138 13.1469C46.6582 13.7966 47.4696 14.1215 48.4482 14.1215C49.4268 14.1215 50.2379 13.7985 50.8815 13.1525C51.5259 12.5065 51.8481 11.6912 51.8481 10.7064C51.8481 9.72157 51.5259 8.90655 50.8815 8.26131C50.2387 7.61532 49.4276 7.29195 48.4482 7.2912C47.4689 7.29045 46.6574 7.6157 46.0138 8.26696C45.3702 8.91671 45.0484 9.72985 45.0484 10.7064C45.0484 11.6829 45.3702 12.4964 46.0138 13.1469Z" fill="#FF5618"/>
<path d="M62.0158 17.3107C60.4502 17.3107 59.1872 16.9034 58.2267 16.0887C57.2662 15.2741 56.7825 14.1974 56.7758 12.8588H60.0579C60.0662 13.3926 60.2601 13.8022 60.6396 14.0875C61.0191 14.3729 61.5231 14.5144 62.1516 14.5122C62.5932 14.5274 63.0297 14.4152 63.409 14.1892C63.5699 14.0954 63.7025 13.9601 63.7929 13.7976C63.8833 13.635 63.9282 13.4512 63.9228 13.2654C63.9266 13.074 63.8647 12.8871 63.7474 12.7357C63.6011 12.564 63.4122 12.4336 63.1996 12.3574C62.9617 12.2598 62.7165 12.1809 62.4663 12.1213C62.2248 12.0649 61.9083 12.0027 61.5167 11.935C61.1636 11.8747 60.8663 11.8202 60.6249 11.7712C60.3834 11.7223 60.0918 11.6493 59.75 11.5521C59.4525 11.4716 59.1631 11.3639 58.8854 11.2303C58.6251 11.0969 58.3774 10.9404 58.1452 10.7627C57.902 10.5842 57.6917 10.3649 57.5239 10.1145C57.3558 9.84675 57.2267 9.55664 57.1402 9.25277C57.0349 8.89028 56.9834 8.51436 56.9874 8.13697C56.975 7.58158 57.0944 7.03114 57.336 6.53063C57.5775 6.03011 57.9343 5.59373 58.3772 5.25713C59.303 4.51778 60.5151 4.14773 62.0136 4.14697C63.512 4.14622 64.7192 4.52756 65.6352 5.29101C66.5459 6.0537 67.005 7.05882 67.0126 8.30638H63.8119C63.8051 7.81774 63.6376 7.44957 63.3094 7.20187C62.9812 6.95416 62.5202 6.83107 61.9264 6.83257C61.4058 6.83257 60.9972 6.94174 60.7007 7.16008C60.56 7.25631 60.4456 7.386 60.3677 7.53743C60.2899 7.68886 60.2511 7.85727 60.2548 8.02743C60.2527 8.1535 60.2774 8.27858 60.3272 8.39447C60.3846 8.51159 60.4751 8.60936 60.5875 8.67567C60.712 8.75096 60.8286 8.81873 60.9372 8.87896C61.0965 8.95231 61.263 9.00871 61.4341 9.04723C61.6604 9.1037 61.837 9.14548 61.9762 9.17146L62.6145 9.28439C63.827 9.50198 64.7007 9.72785 65.2357 9.962C66.5832 10.5643 67.257 11.6161 67.257 13.1174C67.257 14.3868 66.779 15.4032 65.8231 16.1667C64.8671 16.9301 63.598 17.3111 62.0158 17.3096" fill="#FF5618"/>
<circle cx="37.5" cy="65.5" r="37.5" fill="#FEFEFE"/>
<path d="M43.3422 64.3521L46.3467 59.1772L46.353 59.173L48.5562 55.3731L48.552 55.3647H48.5604L54 46H49.5767H43.1124H34.2763H31.9086L26.469 55.3647L26.4648 55.3731L24.2553 59.1772L21.2508 64.3521L21.2066 64.4318L11 82H28.6702H33.0914L37.5105 74.398L37.5147 74.3875L43.298 64.4318L43.3422 64.3521Z" fill="#FF5618"/>
<path d="M53.4264 64H47.4593L42.6869 72.1281V72.1367L39 78.403L41.1143 82H54.8461H64L53.4264 64Z" fill="#FF5618"/>
</svg>
