<svg width="294" height="221" viewBox="0 0 294 221" fill="none" xmlns="http://www.w3.org/2000/svg">
<g clip-path="url(#clip0_7_30)">
<mask id="mask0_7_30" style="mask-type:luminance" maskUnits="userSpaceOnUse" x="0" y="0" width="294" height="221">
<path d="M294 0H0V221H294V0Z" fill="white"/>
</mask>
<g mask="url(#mask0_7_30)">
<path d="M155.02 101.126H109.355V103.485H155.02V101.126Z" fill="#555555"/>
<path d="M142.499 36.9528L137.518 89.6577L232.689 91.5479L236.884 37.7926L142.499 36.9528Z" fill="#555555"/>
<path d="M176.058 84.6181L173.698 100.997L163.998 102.257V104.356H191.265L192.051 81.6784L176.058 84.6181Z" fill="#555555"/>
<path d="M144.334 39.4722L229.805 39.8925L225.872 88.1878H140.664L144.334 39.4722Z" fill="black"/>
<path d="M12.6531 101.139V109.43L193.651 111.534L193.805 104.248L12.6531 101.139Z" fill="black"/>
<path d="M193.464 104.248H279.08V111.52H193.464C193.464 111.52 193.464 104.535 193.464 104.248Z" fill="black"/>
<path d="M26.0437 108.525L0.943359 202.476H5.04129L33.7279 107.704L26.0437 108.525Z" fill="black"/>
<path d="M203.797 108.525L228.899 202.476H224.801L196.114 107.704L203.797 108.525Z" fill="black"/>
<path d="M265.914 108.452L293.03 194.056H288.932L258.23 107.704L265.914 108.452Z" fill="black"/>
<path d="M106.993 43.5692C107.649 45.0141 109.201 46.0709 110.158 47.4041C109.886 48.17 108.454 48.1643 107.816 48.7743C107.564 49.0154 107.46 49.332 107.384 49.6406C107.077 50.8903 107.102 52.193 106.621 53.4065C106.139 54.62 104.948 55.7909 103.362 55.8776C101.634 55.9725 99.5649 54.8578 98.3829 55.872C97.9133 56.2746 97.835 56.8693 97.7818 57.4182C97.6303 58.9692 97.4788 60.5211 97.3263 62.0721C97.2751 62.6009 97.2048 63.1666 96.7784 63.5725C96.2476 64.0772 95.3394 64.176 94.5186 64.2323C91.2053 64.4581 87.8771 64.5553 84.5518 64.5232C85.7107 61.037 84.2247 57.3861 83.8203 53.793C83.2263 48.5091 85.0916 43.0701 88.9708 38.7698C90.8472 36.69 93.3096 34.8103 96.3901 34.1071C99.3542 33.4305 102.979 34.1136 104.823 36.1998C106.808 38.4484 105.889 41.143 106.993 43.5692Z" fill="#F68D7A"/>
<path d="M96.7984 47.0111C96.7814 48.6088 95.3274 50.0432 95.0695 51.6272C94.8799 52.7869 94.5799 54.0172 93.5574 54.8522C92.8941 55.3938 91.9971 55.7073 91.1061 55.9652C88.9788 56.5824 86.7442 56.9634 84.4876 57.0943C83.9577 57.1249 83.4008 57.1377 82.9252 56.9481C81.9559 56.5615 81.7482 55.5586 81.4613 54.722C80.4508 51.7855 77.262 49.7306 74.9551 47.3101C72.4807 44.7143 70.9425 41.495 71.0027 38.229C71.0629 34.9638 72.8098 31.6818 75.9565 29.6044C79.1032 27.527 83.8133 26.6968 87.6041 27.8998C88.4179 26.6598 90.0384 25.8522 91.7352 25.5155C93.433 25.1779 95.215 25.2583 96.9519 25.4263C98.8063 25.6055 100.669 25.8891 102.361 26.5248C104.052 27.1605 105.571 28.1819 106.365 29.536C106.888 30.4289 107.084 31.4358 107.704 32.2877C108.324 33.1396 109.406 34.0549 110.549 33.6876C110.031 35.5408 108.192 37.1176 105.919 37.6584C103.647 38.1984 101.031 37.6801 99.3351 36.3533C99.6 37.4229 99.4013 38.143 99.2819 39.2295C99.1625 40.316 97.5811 42.4007 97.6955 42.4545C97.8099 42.5083 96.675 42.0856 96.1342 42.0045C95.5933 41.9233 95.0083 42.0599 94.606 42.3605C94.2036 42.661 93.9929 43.1191 94.0561 43.5571C94.1635 44.3013 94.7816 44.7995 94.8478 45.5469C94.8658 45.7534 94.8588 45.9608 94.8528 46.1681C94.8367 46.6198 95.5893 47.4194 96.7984 47.0111Z" fill="black"/>
<path d="M113.236 205.044C111.671 205.055 110.105 205.066 108.54 205.078C108.351 205.079 108.15 205.077 107.995 204.99C107.842 204.903 107.771 204.751 107.71 204.609C106.631 202.076 105.488 199.184 105.417 196.507C107.657 196.151 110.551 193.966 112.029 195.595C112.784 196.426 113.824 205.04 113.236 205.044Z" fill="#FA8C76"/>
<path d="M86.1753 154.217C87.1777 166.163 90.1649 178.001 95.0334 189.322C96.3519 192.388 97.8239 195.477 98.0055 198.717C104.311 199.098 110.72 198.337 116.616 196.508C113.698 181.44 111.082 166.335 108.768 151.199C108.586 150.008 106.267 150.718 104.774 150.816C102.87 150.942 100.965 151.068 99.0611 151.194C97.1456 151.32 95.196 151.453 93.4179 152.038C91.3268 152.726 88.1119 155.15 86.1753 154.217Z" fill="#1C203B"/>
<path d="M107.335 204.022C109.722 203.223 111.725 203.298 114.106 204.111C114.285 203.938 114.84 203.936 115.002 204.12C115.165 204.303 115.185 204.539 115.24 204.759C115.522 205.902 116.804 206.726 118.145 207.177C119.485 207.628 120.948 207.808 122.295 208.25C123.026 208.489 123.736 208.817 124.226 209.313C124.717 209.809 124.955 210.497 124.684 211.092C124.19 212.174 122.45 212.416 121.016 212.485C117.269 212.669 113.521 212.852 109.774 213.035C108.45 213.1 106.856 213.061 106.155 212.158C105.819 211.725 105.784 211.19 105.771 210.681C105.719 208.564 106.917 206.113 107.335 204.022Z" fill="#1C203B"/>
<path d="M149.317 132.956C150.819 133.363 152.298 133.957 153.313 134.933C154.435 136.011 154.871 137.431 155.25 138.802C156.526 143.414 157.034 148.73 157.766 153.417C157.842 153.904 157.898 154.445 157.531 154.837C157.326 155.056 157.516 154.539 157.214 154.665C150.661 157.399 134.674 160.516 134.92 154.602C134.972 153.356 132.636 153.949 131.215 153.555C125.134 151.869 118.628 155.41 113.089 152.787C108.838 150.774 108.625 146.089 110.523 142.853C112.174 140.038 111.535 134.989 114.871 134.007C125.022 131.021 137.927 129.867 149.317 132.956Z" fill="#1C203B"/>
<path d="M161.977 205.044C160.412 205.055 158.846 205.066 157.281 205.078C157.092 205.079 156.891 205.077 156.736 204.99C156.583 204.903 156.512 204.751 156.451 204.609C155.372 202.076 154.229 199.184 154.158 196.507C156.398 196.151 159.292 193.966 160.77 195.595C161.525 196.426 162.565 205.04 161.977 205.044Z" fill="#FA8C76"/>
<path d="M100.807 155.777C100.744 157.174 100.615 158.582 100.639 159.979C100.663 161.346 100.685 162.714 100.708 164.081C100.756 166.852 100.919 169.617 101.066 172.385C101.356 177.858 101.634 183.327 102.075 188.793C102.328 191.928 102.583 195.063 102.837 198.198C102.889 198.849 103.491 199.404 104.342 199.404C105.136 199.404 105.874 198.852 105.847 198.198C105.617 192.663 105.48 187.119 105.095 181.59C104.711 176.057 104.475 170.502 103.892 164.981C103.731 163.447 103.568 161.913 103.407 160.378C103.237 158.772 102.917 157.174 102.649 155.576C102.505 154.709 100.844 154.968 100.807 155.777Z" fill="black"/>
<path d="M123.987 210.503C124.694 207.496 123.432 204.543 120.969 202.254C118.452 199.914 114.927 198.498 111.209 197.82C107.117 197.073 102.9 197.097 98.728 197.15C96.5867 197.178 94.3933 197.24 92.3182 197.704C90.4579 198.12 88.7822 198.878 87.3433 199.905C84.3943 202.012 82.6323 205.228 81.6349 208.232C81.366 209.041 81.972 210.01 83.0326 210.203C84.013 210.382 85.2933 209.965 85.494 209.084C85.774 207.859 86.1693 206.651 86.7362 205.49C86.7603 205.441 86.9379 205.115 86.8406 205.282C86.9199 205.147 87.0042 205.015 87.0894 204.882C87.2741 204.597 87.4697 204.317 87.6784 204.042C87.8691 203.792 88.0708 203.546 88.2845 203.307C88.3417 203.242 88.5625 203.007 88.5273 203.044C88.429 203.142 88.6176 202.958 88.6146 202.961C88.6929 202.888 88.7692 202.813 88.8494 202.74C89.8819 201.795 90.7519 201.213 92.2048 200.719C93.7993 200.178 95.5271 200.055 97.253 199.999C100.898 199.88 104.783 199.792 108.328 200.208C110.101 200.416 111.908 200.761 113.545 201.326C114.229 201.562 114.918 201.864 115.555 202.191C116.272 202.56 116.607 202.767 117.224 203.22C118.513 204.166 119.405 205.074 120.178 206.383C120.217 206.449 120.256 206.514 120.292 206.582C120.221 206.451 120.308 206.616 120.328 206.658C120.403 206.817 120.474 206.977 120.538 207.138C120.666 207.46 120.768 207.787 120.842 208.119C120.858 208.189 120.874 208.261 120.886 208.331C120.861 208.188 120.887 208.358 120.891 208.408C120.906 208.577 120.921 208.745 120.926 208.915C120.93 209.085 120.927 209.255 120.916 209.425C120.911 209.498 120.905 209.571 120.897 209.645C120.894 209.671 120.852 209.952 120.877 209.815C120.75 210.504 121.092 211.202 122.003 211.403C122.791 211.577 123.825 211.192 123.987 210.503Z" fill="black"/>
<path d="M122.72 214.399C122.85 214.447 122.97 214.505 123.085 214.573C123.006 214.524 122.929 214.476 122.851 214.428C122.987 214.513 123.108 214.609 123.217 214.718C123.156 214.654 123.094 214.59 123.031 214.526C123.157 214.657 123.259 214.798 123.34 214.949C123.299 214.871 123.258 214.794 123.218 214.716C123.296 214.87 123.349 215.027 123.379 215.191C123.364 215.102 123.348 215.014 123.333 214.924C123.353 215.05 123.36 215.175 123.345 215.301C123.361 215.21 123.376 215.119 123.392 215.028C123.368 215.165 123.324 215.296 123.261 215.424C123.306 215.339 123.35 215.254 123.396 215.169C123.327 215.297 123.242 215.416 123.136 215.526C123.208 215.45 123.281 215.375 123.353 215.3C123.254 215.398 123.143 215.484 123.019 215.562C123.117 215.502 123.214 215.441 123.311 215.381C123.16 215.472 122.998 215.545 122.824 215.604C122.943 215.563 123.063 215.522 123.183 215.482C122.936 215.561 122.669 215.61 122.406 215.642C122.545 215.627 122.683 215.612 122.822 215.597C122.617 215.619 122.413 215.62 122.209 215.601C122.348 215.616 122.487 215.631 122.626 215.646C122.438 215.624 122.259 215.586 122.083 215.528C122.209 215.571 122.334 215.613 122.459 215.655C122.314 215.603 122.179 215.539 122.053 215.462C122.159 215.528 122.267 215.594 122.373 215.661C122.25 215.581 122.14 215.493 122.043 215.393C122.126 215.479 122.209 215.565 122.292 215.65C122.177 215.529 122.087 215.399 122.01 215.26C122.063 215.361 122.117 215.463 122.17 215.564C122.084 215.399 122.027 215.23 121.997 215.052C122.016 215.165 122.035 215.278 122.053 215.391C122.03 215.226 122.03 215.063 122.057 214.898C122.038 215.01 122.019 215.123 122.001 215.235C122.029 215.085 122.078 214.941 122.151 214.801C122.098 214.901 122.045 215.002 121.992 215.103C122.056 214.987 122.134 214.879 122.23 214.778C122.147 214.863 122.065 214.949 121.983 215.034C122.093 214.922 122.22 214.824 122.36 214.736C122.254 214.802 122.147 214.867 122.042 214.933C122.19 214.847 122.345 214.776 122.513 214.717C122.387 214.759 122.263 214.802 122.137 214.844C122.324 214.783 122.516 214.741 122.715 214.716C122.577 214.731 122.438 214.746 122.3 214.761C122.519 214.738 122.735 214.737 122.954 214.759C122.816 214.744 122.677 214.729 122.54 214.714C122.702 214.733 122.856 214.767 123.008 214.816C122.884 214.774 122.759 214.732 122.634 214.69C122.788 214.743 122.929 214.809 123.063 214.889C122.957 214.823 122.851 214.757 122.744 214.691C122.891 214.782 123.019 214.885 123.136 215C123.052 214.914 122.97 214.828 122.887 214.742C123.009 214.869 123.11 215.006 123.188 215.153C123.134 215.051 123.081 214.949 123.026 214.847C123.087 214.968 123.13 215.092 123.155 215.221C123.136 215.106 123.117 214.992 123.098 214.878C123.116 214.993 123.118 215.106 123.102 215.221C123.121 215.106 123.14 214.99 123.16 214.875C123.142 214.978 123.11 215.076 123.062 215.172C123.118 215.068 123.172 214.964 123.227 214.859C123.181 214.945 123.127 215.023 123.056 215.097C123.142 215.009 123.227 214.92 123.312 214.831C123.255 214.888 123.192 214.937 123.122 214.983C123.233 214.914 123.343 214.846 123.455 214.777C123.351 214.841 123.241 214.892 123.122 214.932C123.253 214.888 123.386 214.843 123.517 214.798C123.395 214.837 123.269 214.863 123.14 214.879C123.287 214.863 123.435 214.847 123.582 214.831C123.413 214.849 123.246 214.857 123.076 214.842C123.222 214.858 123.369 214.873 123.515 214.889C123.389 214.875 123.267 214.851 123.149 214.814C123.28 214.858 123.411 214.902 123.542 214.946C123.44 214.912 123.345 214.868 123.258 214.814C123.369 214.883 123.479 214.951 123.589 215.019C123.523 214.975 123.466 214.929 123.413 214.874C123.498 214.962 123.582 215.05 123.668 215.138C123.623 215.089 123.587 215.039 123.556 214.983C123.611 215.087 123.666 215.19 123.721 215.294C123.706 215.265 123.693 215.236 123.682 215.206C123.627 215.54 123.572 215.874 123.518 216.208C123.55 216.151 123.588 216.099 123.634 216.049C123.55 216.136 123.466 216.224 123.382 216.312C123.44 216.253 123.503 216.203 123.576 216.156C123.468 216.224 123.359 216.291 123.25 216.358C123.325 216.314 123.404 216.277 123.489 216.246C123.362 216.289 123.233 216.332 123.106 216.375C123.207 216.341 123.308 216.318 123.418 216.304C123.276 216.319 123.135 216.334 122.993 216.349C123.102 216.339 123.206 216.338 123.315 216.349C123.175 216.333 123.033 216.318 122.893 216.303C122.984 216.315 123.071 216.334 123.157 216.363C123.03 216.32 122.905 216.278 122.779 216.235C122.821 216.251 122.861 216.269 122.901 216.288C122.64 215.924 122.379 215.559 122.118 215.195C122.122 215.252 122.119 215.305 122.11 215.361C122.129 215.249 122.147 215.137 122.166 215.025C122.153 215.08 122.135 215.132 122.111 215.184C122.164 215.084 122.217 214.984 122.27 214.884C122.235 214.948 122.194 215.007 122.143 215.064C122.225 214.98 122.307 214.896 122.388 214.81C122.334 214.866 122.276 214.914 122.209 214.96C122.314 214.895 122.419 214.83 122.524 214.765C122.453 214.807 122.382 214.841 122.302 214.87C122.425 214.828 122.549 214.786 122.672 214.744C122.606 214.765 122.542 214.779 122.472 214.789C122.61 214.774 122.746 214.759 122.884 214.744C122.797 214.753 122.713 214.753 122.626 214.744C122.762 214.758 122.899 214.773 123.035 214.788C122.949 214.776 122.869 214.757 122.788 214.731C122.91 214.773 123.032 214.814 123.155 214.855C123.076 214.825 123.002 214.79 122.932 214.749C123.035 214.812 123.139 214.876 123.241 214.94C123.174 214.895 123.115 214.847 123.06 214.792C123.14 214.874 123.219 214.957 123.298 215.039C123.257 214.994 123.222 214.948 123.192 214.897C123.243 214.994 123.293 215.09 123.344 215.186C123.337 215.174 123.331 215.161 123.324 215.148C123.273 215.459 123.223 215.769 123.172 216.08C123.187 216.058 123.205 216.038 123.225 216.017C123.147 216.099 123.069 216.181 122.989 216.262C123.021 216.233 123.053 216.208 123.091 216.183C122.989 216.246 122.888 216.308 122.788 216.371C122.828 216.349 122.866 216.33 122.909 216.312C122.791 216.353 122.671 216.393 122.553 216.433C122.613 216.413 122.671 216.398 122.734 216.389C122.603 216.403 122.471 216.417 122.34 216.431C122.404 216.425 122.465 216.423 122.53 216.428C122.399 216.414 122.269 216.4 122.138 216.386C122.203 216.394 122.26 216.407 122.319 216.426C122.203 216.387 122.086 216.348 121.969 216.308C122.013 216.327 122.05 216.345 122.089 216.369C121.991 216.308 121.893 216.248 121.794 216.187C121.83 216.214 121.86 216.239 121.891 216.27C121.815 216.191 121.739 216.113 121.664 216.034C121.691 216.066 121.713 216.098 121.734 216.133C121.686 216.041 121.637 215.949 121.588 215.857C121.667 216.017 121.729 216.178 121.821 216.337C121.774 216.249 121.728 216.16 121.681 216.071C121.702 216.115 121.716 216.156 121.725 216.202C121.709 216.11 121.694 216.017 121.678 215.923C121.681 215.959 121.682 215.99 121.678 216.025C121.693 215.936 121.708 215.848 121.722 215.759C121.718 215.783 121.712 215.806 121.704 215.829C121.583 216.208 121.75 216.604 122.135 216.843C122.308 216.95 122.489 217.009 122.705 217.032C122.993 217.064 123.206 217.012 123.473 216.918C124.052 216.716 124.436 216.164 124.453 215.68C124.473 215.129 124.05 214.595 123.486 214.305C122.991 214.05 122.341 214 121.78 214.125C120.883 214.326 120.118 215.06 120.425 215.833C120.61 216.304 121.003 216.7 121.533 216.95C122.086 217.212 122.721 217.274 123.344 217.175C123.808 217.102 124.313 216.86 124.614 216.568C125.017 216.176 125.294 215.719 125.278 215.196C125.252 214.382 124.39 213.916 123.481 213.818C123.055 213.772 122.616 213.781 122.21 213.91C121.621 214.095 121.155 214.359 120.799 214.785C120.376 215.291 120.445 215.931 120.832 216.433C121.069 216.739 121.383 216.988 121.769 217.174C122.04 217.304 122.361 217.409 122.676 217.449C123.179 217.515 123.577 217.527 124.084 217.437C124.18 217.419 124.273 217.394 124.364 217.364C124.577 217.295 124.804 217.232 124.997 217.126C125.384 216.915 125.7 216.681 125.943 216.355C126.207 216.001 126.309 215.623 126.35 215.219C126.365 215.07 126.338 214.927 126.313 214.78C126.286 214.625 126.264 214.474 126.201 214.326C126.081 214.04 125.925 213.758 125.696 213.517C125.376 213.18 125.08 212.935 124.636 212.694C124.324 212.526 123.951 212.405 123.584 212.336C123.198 212.263 122.781 212.215 122.382 212.245C121.823 212.288 121.389 212.378 120.88 212.563C120.206 212.807 119.577 213.283 119.265 213.824C119.045 214.206 118.944 214.518 118.883 214.933C118.838 215.239 118.888 215.537 118.954 215.84C119.073 216.398 119.47 216.971 119.99 217.353C120.639 217.83 121.428 218.076 122.302 218.119C123.852 218.196 125.354 217.347 125.788 216.155C126.179 215.079 125.662 213.828 124.563 213.148C124.263 212.962 123.957 212.833 123.593 212.735C123.058 212.589 122.463 212.867 122.256 213.26C122.055 213.648 122.208 214.208 122.72 214.399Z" fill="black"/>
<path d="M82.0041 213.349C82.0382 213.335 82.0713 213.322 82.1064 213.31C82.0081 213.343 81.9107 213.376 81.8124 213.41C81.9288 213.371 82.0482 213.345 82.1736 213.331C82.0623 213.343 81.9509 213.355 81.8395 213.367C81.978 213.354 82.1143 213.355 82.2518 213.37C82.1374 213.357 82.0241 213.345 81.9097 213.333C82.0472 213.349 82.1797 213.379 82.3081 213.422C82.2037 213.386 82.0984 213.351 81.994 213.316C82.1094 213.357 82.2168 213.406 82.3181 213.467C82.2278 213.41 82.1365 213.354 82.0462 213.298C82.1345 213.354 82.2138 213.417 82.285 213.488C82.2138 213.414 82.1424 213.34 82.0702 213.266C82.1394 213.338 82.1957 213.415 82.2409 213.499C82.1937 213.41 82.1465 213.32 82.1004 213.231C82.1475 213.325 82.1797 213.42 82.1977 213.521C82.1807 213.419 82.1636 213.318 82.1466 213.217C82.1626 213.328 82.1616 213.437 82.1435 213.547C82.1606 213.443 82.1786 213.34 82.1956 213.236C82.1765 213.337 82.1434 213.432 82.0963 213.526C82.1464 213.431 82.1967 213.336 82.2469 213.24C82.1927 213.342 82.1244 213.436 82.0401 213.525C82.1204 213.442 82.1997 213.359 82.28 213.276C82.2088 213.347 82.1294 213.41 82.0401 213.466C82.1454 213.401 82.2509 213.335 82.3573 213.27C82.268 213.322 82.1746 213.365 82.0723 213.401C82.1997 213.358 82.3262 213.315 82.4536 213.272C82.3412 213.308 82.2268 213.333 82.1074 213.347C82.2519 213.332 82.3964 213.316 82.5409 213.3C82.3492 213.32 82.1536 213.325 81.9619 213.304C82.1084 213.32 82.2549 213.335 82.4004 213.351C82.267 213.334 82.1394 213.306 82.014 213.267C82.1454 213.311 82.277 213.356 82.4084 213.4C82.285 213.358 82.1706 213.306 82.0623 213.242C82.1736 213.311 82.286 213.38 82.3974 213.449C82.3011 213.389 82.2168 213.32 82.1415 213.243C82.2278 213.333 82.3141 213.423 82.4004 213.513C82.3332 213.439 82.278 213.362 82.2328 213.28C82.289 213.386 82.3442 213.492 82.4004 213.597C82.3482 213.494 82.3141 213.39 82.2951 213.28C82.3151 213.398 82.3342 213.517 82.3543 213.635C82.3382 213.524 82.3392 213.415 82.3543 213.304C82.3342 213.423 82.3141 213.541 82.2951 213.66C82.3151 213.539 82.3532 213.423 82.4094 213.31C82.3532 213.416 82.2971 213.523 82.2409 213.63C82.295 213.528 82.3623 213.433 82.4446 213.344C82.3573 213.434 82.27 213.525 82.1827 213.615C82.2599 213.536 82.3472 213.465 82.4456 213.402C82.3322 213.472 82.2198 213.542 82.1064 213.612C82.2088 213.55 82.3181 213.501 82.4355 213.46C82.3021 213.505 82.1686 213.551 82.0342 213.596C82.1646 213.554 82.2981 213.527 82.4375 213.511C82.288 213.527 82.1395 213.543 81.99 213.559C82.1435 213.545 82.294 213.544 82.4476 213.558C82.2991 213.542 82.1495 213.526 82.001 213.51C82.1535 213.527 82.3011 213.558 82.4446 213.603C82.3111 213.558 82.1766 213.513 82.0432 213.468C82.1726 213.512 82.294 213.566 82.4074 213.633C82.294 213.563 82.1807 213.493 82.0673 213.423C82.1736 213.488 82.266 213.562 82.3492 213.647C82.2619 213.556 82.1746 213.466 82.0873 213.375C82.1526 213.446 82.2078 213.519 82.2529 213.599C82.1967 213.492 82.1404 213.386 82.0832 213.279C82.1184 213.348 82.1445 213.417 82.1596 213.491C82.1395 213.372 82.1195 213.253 82.0994 213.134C82.1104 213.206 82.1104 213.274 82.0994 213.345C82.1195 213.226 82.1395 213.107 82.1596 212.988C82.1445 213.054 82.1225 213.116 82.0904 213.179C82.1465 213.072 82.2027 212.965 82.2589 212.859C82.2178 212.932 82.1676 212.997 82.1074 213.061C82.1947 212.971 82.282 212.88 82.3693 212.79C82.2971 212.862 82.2178 212.924 82.1275 212.981C82.2399 212.911 82.3532 212.842 82.4656 212.772C82.3703 212.829 82.271 212.875 82.1636 212.915C82.2971 212.87 82.4295 212.825 82.563 212.78C82.4506 212.817 82.3371 212.843 82.2177 212.859C82.3652 212.843 82.5138 212.827 82.6623 212.811C82.558 212.822 82.4576 212.824 82.3522 212.816C82.4997 212.832 82.6483 212.848 82.7958 212.863C82.7075 212.854 82.6242 212.837 82.5399 212.812C82.6723 212.857 82.8058 212.902 82.9382 212.947C82.863 212.921 82.7958 212.891 82.7305 212.851C82.8429 212.921 82.9553 212.99 83.0677 213.06C83.0085 213.021 82.9573 212.977 82.9101 212.928C82.9974 213.018 83.0837 213.108 83.171 213.198C83.1269 213.148 83.0908 213.096 83.0597 213.039C83.1158 213.145 83.172 213.251 83.2272 213.358C83.2051 213.311 83.1881 213.263 83.177 213.214C83.1971 213.332 83.2162 213.45 83.2363 213.568C83.2262 213.509 83.2251 213.451 83.2341 213.391C83.2141 213.509 83.1951 213.627 83.175 213.746C83.1881 213.687 83.2041 213.631 83.2322 213.575C83.177 213.681 83.1209 213.786 83.0657 213.891C83.0847 213.861 83.1058 213.832 83.1309 213.805C83.0456 213.893 82.9603 213.982 82.874 214.071C82.9011 214.045 82.9302 214.022 82.9623 214C82.8529 214.069 82.7426 214.136 82.6322 214.204C82.6834 214.173 82.7366 214.148 82.7958 214.128C82.6673 214.172 82.5389 214.215 82.4104 214.258C82.4706 214.24 82.5308 214.228 82.594 214.221C82.4525 214.236 82.3111 214.251 82.1696 214.266C82.2218 214.262 82.273 214.262 82.3252 214.266C82.1847 214.251 82.0442 214.236 81.9047 214.221C82.0733 214.242 82.2429 214.278 82.4135 214.278C82.6673 214.277 82.7245 214.241 82.8971 214.221C82.7626 214.236 82.6292 214.25 82.4947 214.265C82.6071 214.257 82.8309 214.249 82.9352 214.214C82.6743 214.214 82.4145 214.214 82.1536 214.214C82.1857 214.225 82.2198 214.231 82.2529 214.241C82.1405 214.203 82.028 214.164 81.9147 214.127C81.9317 214.132 81.9489 214.139 81.9639 214.147C82.3964 214.342 82.9262 214.35 83.3587 214.147C83.7851 213.947 84.0339 213.584 84.0429 213.192C84.0479 212.952 83.9728 212.69 83.8132 212.485C83.8804 212.682 83.9467 212.881 84.0139 213.079C84.041 212.864 83.9126 212.582 83.7811 212.401C83.5483 212.082 83.2021 211.896 82.7747 211.783C82.3834 211.68 81.98 211.698 81.5836 211.761C80.814 211.884 80.1337 212.427 79.9621 213.038C79.7745 213.709 80.0344 214.391 80.6234 214.887C81.1261 215.31 81.9348 215.549 82.6583 215.485C83.15 215.443 83.4811 215.375 83.9286 215.195C84.1935 215.088 84.4423 214.932 84.648 214.761C85.1567 214.337 85.518 213.732 85.4488 213.132C85.4056 212.763 85.3053 212.432 85.0595 212.11C84.9089 211.913 84.7203 211.711 84.4975 211.558C84.057 211.258 83.5463 211.003 82.9673 210.921C82.3874 210.838 81.7743 210.81 81.2084 210.979C80.9595 211.053 80.6916 211.131 80.4718 211.256C80.0715 211.483 79.8618 211.655 79.5728 211.966C79.2166 212.35 79.0851 212.809 79.0199 213.274C79.0049 213.385 79.0019 213.493 79.0159 213.604C79.037 213.771 79.059 213.942 79.1082 214.106C79.1584 214.274 79.2597 214.44 79.344 214.594C79.5698 215.007 80.0053 215.342 80.4739 215.58C80.9515 215.823 81.5064 215.927 82.0633 215.955C82.6081 215.982 83.2192 215.848 83.6757 215.608C83.8985 215.49 84.1233 215.358 84.2949 215.192C84.5808 214.917 84.7193 214.72 84.8829 214.392C85.0996 213.956 85.0946 213.452 84.9712 213C84.8578 212.582 84.5426 212.149 84.1292 211.876C83.8061 211.664 83.5383 211.542 83.1439 211.424C82.8841 211.346 82.5931 211.319 82.3191 211.308C81.7954 211.289 81.1903 211.412 80.7618 211.659C80.4969 211.811 80.2902 211.983 80.1999 212.244C80.1197 212.478 80.1557 212.79 80.3232 212.997C80.7045 213.461 81.396 213.603 82.0041 213.349Z" fill="black"/>
<path d="M103.715 199.448C103.581 199.524 103.414 199.457 103.258 199.455C103.066 199.451 102.846 199.493 102.66 199.527C102.276 199.598 101.939 199.741 101.598 199.898C100.84 200.247 100.199 200.702 99.5969 201.206C98.3918 202.217 97.5339 203.404 96.8586 204.686C95.3023 207.643 95.0022 210.925 95.3956 214.092C95.4668 214.663 95.9555 215.156 96.7241 215.156C97.3874 215.156 98.1239 214.667 98.0526 214.092C97.6984 211.235 97.873 208.282 99.2627 205.6C99.8226 204.519 100.62 203.506 101.461 202.552C101.884 202.073 102.371 201.63 102.826 201.172C103.05 200.946 103.3 200.74 103.485 200.491C103.582 200.359 103.793 199.824 103.946 199.762C104.205 199.654 103.952 199.313 103.715 199.448Z" fill="black"/>
<path d="M97.1837 216.862C97.1817 216.863 97.1797 216.864 97.1777 216.865C96.7312 217.032 96.5346 217.445 96.5015 217.808C96.5005 217.825 96.4984 217.842 96.4954 217.859C96.5124 217.761 96.5286 217.662 96.5447 217.564C96.5326 217.622 96.5124 217.677 96.4833 217.732C96.5325 217.638 96.5818 217.544 96.6309 217.451C96.5988 217.506 96.5607 217.556 96.5156 217.604C96.5958 217.52 96.6771 217.437 96.7574 217.353C96.7514 217.36 96.7442 217.366 96.7382 217.372C96.8436 217.307 96.9479 217.242 97.0533 217.177C96.8004 217.326 96.5858 217.47 96.4363 217.691C96.4092 217.732 96.3761 217.769 96.342 217.806C96.4242 217.72 96.5074 217.634 96.5897 217.548C96.5385 217.598 96.4843 217.642 96.4211 217.681C96.5295 217.614 96.6369 217.548 96.7452 217.48C96.691 217.512 96.6339 217.539 96.5726 217.561C96.7011 217.518 96.8295 217.474 96.958 217.431C96.8947 217.451 96.8315 217.466 96.7633 217.474C96.9068 217.458 97.0514 217.442 97.1949 217.427C97.1286 217.433 97.0643 217.433 96.9981 217.427C97.1436 217.442 97.2881 217.458 97.4336 217.474C97.3533 217.464 97.2781 217.447 97.2029 217.423C97.3343 217.467 97.4658 217.512 97.5972 217.556C97.523 217.529 97.4557 217.497 97.3895 217.458C97.5019 217.528 97.6143 217.597 97.7267 217.667C97.6514 217.618 97.5851 217.565 97.5249 217.505C97.6122 217.596 97.6995 217.687 97.7878 217.777C97.6884 217.667 97.5802 217.56 97.4758 217.452C97.5631 217.543 97.6514 217.634 97.7387 217.724C97.6815 217.661 97.6353 217.596 97.5981 217.524C97.6543 217.63 97.7115 217.738 97.7677 217.846C97.7386 217.784 97.7176 217.722 97.7046 217.656C97.7247 217.776 97.7447 217.895 97.7648 218.015C97.7558 217.949 97.7548 217.885 97.7648 217.818C97.7447 217.938 97.7247 218.057 97.7046 218.177C97.7176 218.113 97.7376 218.054 97.7677 217.994C97.7115 218.102 97.6543 218.209 97.5981 218.317C97.6353 218.249 97.6795 218.188 97.7347 218.129C97.6474 218.22 97.5591 218.311 97.4718 218.402C97.537 218.336 97.6102 218.278 97.6935 218.227C97.5801 218.297 97.4668 218.367 97.3534 218.437C97.4397 218.387 97.529 218.346 97.6263 218.311C97.4919 218.356 97.3584 218.402 97.224 218.447C97.3223 218.415 97.4226 218.392 97.528 218.379C97.3785 218.395 97.2299 218.411 97.0804 218.427C97.1857 218.416 97.2891 218.415 97.3944 218.424C97.2449 218.408 97.0965 218.392 96.947 218.376C97.0433 218.388 97.1325 218.407 97.2229 218.436C97.0884 218.391 96.9549 218.346 96.8205 218.301C96.9238 218.337 97.0183 218.381 97.1086 218.435C96.9952 218.365 96.8817 218.294 96.7683 218.224C96.8566 218.281 96.9349 218.343 97.0061 218.414C96.9188 218.323 96.8305 218.232 96.7432 218.141C96.8216 218.223 96.8858 218.309 96.939 218.403C96.8828 218.295 96.8256 218.188 96.7694 218.08C96.8246 218.186 96.8617 218.293 96.8818 218.407C96.8617 218.287 96.8417 218.168 96.8216 218.048C96.8336 218.138 96.8335 218.226 96.8195 218.315C96.8396 218.195 96.8596 218.076 96.8797 217.957C96.8606 218.054 96.8275 218.147 96.7804 218.238C96.8365 218.13 96.8937 218.023 96.9499 217.916C96.8988 218.006 96.8375 218.089 96.7633 218.169C96.8506 218.078 96.939 217.987 97.0263 217.896C96.941 217.983 96.8456 218.06 96.7382 218.128C96.8516 218.058 96.965 217.987 97.0784 217.917C96.969 217.983 96.8536 218.037 96.7282 218.08C96.8616 218.035 96.9962 217.99 97.1296 217.945C97.0173 217.98 96.9018 218.005 96.7814 218.018C96.9309 218.002 97.0795 217.986 97.229 217.97C97.1347 217.978 97.0432 217.978 96.9489 217.97C97.0984 217.986 97.247 218.002 97.3965 218.018C97.2962 218.006 97.2019 217.988 97.1076 217.958C97.242 218.003 97.3755 218.049 97.5099 218.094C97.4236 218.064 97.3444 218.027 97.2681 217.982C97.3815 218.052 97.4948 218.123 97.6082 218.193C97.5149 218.135 97.4326 218.069 97.3603 217.994C97.4476 218.085 97.5359 218.176 97.6232 218.267C97.552 218.191 97.4939 218.109 97.4457 218.022C97.5019 218.129 97.559 218.236 97.6152 218.344C97.5449 218.207 97.4797 218.064 97.4546 217.917C97.4737 218.033 97.4938 218.149 97.5128 218.264C97.5028 218.191 97.5018 218.12 97.5118 218.047C97.4928 218.16 97.4737 218.273 97.4546 218.386C97.4677 218.313 97.4899 218.244 97.523 218.174C97.4708 218.274 97.4186 218.373 97.3664 218.473C97.3855 218.437 97.4036 218.403 97.4327 218.373C97.3524 218.457 97.272 218.539 97.1918 218.623C97.2399 218.575 97.2921 218.534 97.3513 218.496C97.2479 218.56 97.1436 218.624 97.0402 218.689C97.1075 218.648 97.1778 218.615 97.2551 218.587C97.1327 218.629 97.0102 218.67 96.8878 218.712C96.9851 218.68 97.0845 218.659 97.1888 218.648C97.0524 218.662 96.9168 218.677 96.7804 218.692C96.8978 218.682 97.0141 218.683 97.1315 218.695C96.9961 218.681 96.8596 218.666 96.7242 218.651C96.8546 218.667 96.979 218.695 97.1004 218.735C96.978 218.694 96.8566 218.653 96.7342 218.612C96.8446 218.65 96.9469 218.698 97.0443 218.755C96.9409 218.692 96.8375 218.628 96.7342 218.564C96.8195 218.617 96.8957 218.677 96.963 218.744C96.8837 218.661 96.8034 218.579 96.7242 218.497C96.7824 218.559 96.8316 218.624 96.8698 218.694C96.8186 218.597 96.7673 218.5 96.7161 218.403C96.7502 218.469 96.7723 218.538 96.7864 218.609C96.7683 218.501 96.7503 218.393 96.7323 218.285C96.7433 218.358 96.7442 218.43 96.7342 218.504C96.7523 218.395 96.7704 218.288 96.7885 218.179C96.7724 218.272 96.7413 218.361 96.6972 218.448C96.7483 218.35 96.7995 218.252 96.8517 218.155C96.8035 218.242 96.7442 218.321 96.674 218.398C96.7543 218.315 96.8336 218.232 96.9139 218.15C96.8236 218.243 96.7212 218.324 96.6048 218.396C96.7081 218.332 96.8125 218.268 96.9158 218.203C96.8074 218.268 96.6942 218.321 96.5717 218.365C96.6942 218.323 96.8175 218.282 96.9399 218.24C96.8165 218.281 96.6911 218.31 96.5587 218.327C96.6962 218.313 96.8326 218.297 96.9691 218.283C96.8507 218.295 96.7333 218.297 96.6139 218.285C96.7514 218.3 96.8888 218.315 97.0253 218.33C96.9139 218.317 96.8084 218.293 96.7041 218.26C96.8275 218.302 96.9509 218.344 97.0754 218.386C96.967 218.349 96.8676 218.303 96.7733 218.248C96.8787 218.313 96.983 218.378 97.0884 218.443C96.9168 218.333 96.7633 218.218 96.5817 218.112C96.686 218.176 96.7905 218.241 96.8948 218.305C96.8286 218.264 96.7704 218.219 96.7182 218.166C96.7955 218.246 96.8738 218.327 96.951 218.407C96.9099 218.362 96.8757 218.317 96.8466 218.267C96.8947 218.359 96.9439 218.451 96.9921 218.543C96.969 218.495 96.9519 218.448 96.9419 218.397C96.959 218.497 96.975 218.596 96.9921 218.696C96.983 218.634 96.983 218.575 96.9931 218.513C96.977 218.608 96.961 218.705 96.9449 218.8C96.959 218.736 96.9781 218.673 97.0002 218.61C97.0443 218.482 97.0494 218.355 97.0644 218.226C97.0514 218.307 97.0372 218.388 97.0232 218.469C97.0282 218.442 97.0353 218.416 97.0474 218.391C97.0132 218.457 96.9781 218.522 96.944 218.587C96.955 218.567 96.966 218.549 96.98 218.53C97.1807 218.264 97.1426 217.832 96.8335 217.619C96.5445 217.421 96.1974 217.29 95.807 217.295C95.2381 217.303 94.7033 217.626 94.4374 218.018C94.2066 218.358 94.1213 218.722 94.1855 219.103C94.2507 219.491 94.4294 219.882 94.8046 220.15C95.1518 220.396 95.499 220.559 95.9415 220.675C96.1442 220.729 96.366 220.743 96.5758 220.761C96.6751 220.77 96.7713 220.773 96.8717 220.766C97.6312 220.721 98.2896 220.49 98.8555 220.083C98.9247 220.033 98.987 219.979 99.0462 219.921C99.1806 219.789 99.3241 219.653 99.4265 219.502C99.6452 219.178 99.7345 218.894 99.7807 218.534C99.8108 218.299 99.7765 218.049 99.6923 217.825C99.5678 217.493 99.3882 217.278 99.1253 217.013C98.9578 216.845 98.731 216.713 98.5112 216.594C98.2875 216.473 98.0176 216.387 97.7637 216.323C97.5028 216.257 97.2138 216.227 96.9419 216.225C96.7422 216.223 96.5385 216.253 96.3439 216.278C96.2716 216.287 96.2004 216.3 96.1311 216.319C95.7318 216.431 95.4319 216.566 95.1178 216.794C95.0646 216.832 95.0175 216.877 94.9703 216.921C94.8368 217.044 94.6973 217.175 94.5969 217.319C94.4123 217.585 94.3281 217.827 94.2789 218.119C94.2599 218.233 94.2357 218.345 94.2417 218.46C94.2507 218.637 94.2689 218.827 94.3432 218.995C94.594 219.561 95.0094 220.024 95.6466 220.349C95.8262 220.441 96.0379 220.503 96.2346 220.561C96.3239 220.588 96.4132 220.605 96.5065 220.616C96.9841 220.672 97.4006 220.692 97.8772 220.585C98.0869 220.537 98.2895 220.46 98.4862 220.388C98.5785 220.353 98.6648 220.311 98.748 220.264C99.1534 220.032 99.4084 219.828 99.6974 219.503C99.7526 219.44 99.8016 219.375 99.8428 219.306C99.9381 219.146 100.039 218.974 100.097 218.8C100.227 218.412 100.203 218.077 100.131 217.689C100.083 217.431 99.9472 217.176 99.7927 216.949C99.6843 216.79 99.5318 216.645 99.3903 216.507C99.3281 216.446 99.2608 216.39 99.1855 216.338C98.8223 216.092 98.45 215.899 97.9834 215.798C97.5138 215.697 97.0885 215.71 96.6178 215.781C96.5325 215.794 96.4512 215.811 96.37 215.835C96.1592 215.897 95.9315 215.965 95.7388 216.064C95.3475 216.264 95.0546 216.496 94.7987 216.806C94.5388 217.121 94.4444 217.467 94.4023 217.835C94.3581 218.215 94.5178 218.561 94.7064 218.899C94.897 219.242 95.2451 219.489 95.6164 219.704C95.9927 219.922 96.4343 220 96.8868 220.039C97.0464 220.053 97.1817 220.035 97.3443 220.017C97.6724 219.982 97.824 219.944 98.1491 219.816C98.5274 219.668 98.7912 219.421 99.034 219.156C99.0812 219.103 99.1223 219.05 99.1564 218.993C99.2227 218.881 99.2939 218.758 99.3421 218.64C99.4384 218.402 99.4123 218.161 99.3491 217.921C99.3672 218.032 99.3862 218.142 99.4053 218.253C99.3983 217.916 99.2999 217.535 99.0521 217.255C98.8755 217.056 98.6869 216.905 98.4 216.807C98.113 216.71 97.8189 216.693 97.5108 216.753C97.3904 216.776 97.2841 216.812 97.1837 216.862Z" fill="black"/>
<path d="M109.828 131.505C116.802 131.841 123.143 132.078 127.64 127.796C131.784 123.849 129.311 118.014 129.257 112.858C133.992 112.582 139.537 111.902 141.739 108.534C143.365 106.048 142.473 103.029 141.51 100.331C138.225 91.1243 138.302 80.7084 129.787 73.9868C122.503 68.236 112.681 65.1267 103.146 62.1621C98.6215 60.7557 93.8061 61.3343 88.9546 61.401C87.4063 61.4227 85.827 61.475 84.3791 61.9122C82.5007 62.4795 81.0126 63.6392 79.5837 64.7691C76.1561 67.4773 72.7294 70.1864 69.3018 72.8946C66.3216 75.2501 63.2592 77.702 61.732 80.8241C60.5269 83.2873 60.3684 85.9875 60.25 88.6306C59.8817 96.8261 59.5175 95.8537 59.383 104.054C59.3489 106.124 59.3278 108.252 60.257 110.184C62.5889 115.03 70.0182 126.083 76.3738 127.111C86.2002 128.702 96.1742 129.705 106.186 130.112C107.901 130.182 108.114 131.422 109.828 131.505Z" fill="#F4DFCF"/>
<path d="M125.031 144.824C125.031 144.824 126.703 144.155 126.981 141.7C127.26 139.246 125.588 105.781 120.295 98.1955C115.002 90.61 72.9391 89.718 66.5323 96.8567C60.1255 103.996 65.4175 139.023 66.2534 142.816C67.0892 146.608 70.9885 145.94 70.9885 145.94C70.9885 145.94 67.9241 145.716 67.3672 147.724C66.8103 149.733 66.449 156.202 67.8418 157.095C69.2345 157.988 123.073 158.268 126.137 157.153C129.202 156.036 128.93 144.602 125.031 144.824Z" fill="black"/>
<path d="M134.916 154.217C135.918 166.163 138.906 178.001 143.774 189.322C145.093 192.388 146.565 195.477 146.746 198.717C153.052 199.098 159.46 198.337 165.358 196.508C162.44 181.44 159.824 166.335 157.51 151.199C157.328 150.008 155.008 150.718 153.516 150.816C151.612 150.942 149.707 151.068 147.803 151.194C145.887 151.32 143.938 151.453 142.16 152.038C140.068 152.726 136.854 155.15 134.916 154.217Z" fill="#1C203B"/>
<path d="M156.076 204.022C158.464 203.223 160.466 203.298 162.847 204.111C163.025 203.938 163.58 203.936 163.743 204.12C163.905 204.303 163.925 204.539 163.981 204.759C164.263 205.902 165.545 206.726 166.886 207.177C168.226 207.628 169.689 207.808 171.036 208.25C171.767 208.489 172.477 208.817 172.967 209.313C173.458 209.809 173.696 210.497 173.425 211.092C172.931 212.174 171.191 212.416 169.756 212.485C166.01 212.669 162.262 212.852 158.515 213.035C157.191 213.1 155.597 213.061 154.897 212.158C154.561 211.725 154.526 211.19 154.512 210.681C154.459 208.564 155.657 206.113 156.076 204.022Z" fill="#1C203B"/>
<path d="M125.325 82.8019C123.011 85.8967 123.198 89.6649 124.213 93.0579C124.801 95.0228 125.642 96.9314 126.383 98.8609C127.132 100.815 127.729 102.8 128.105 104.823C128.317 105.971 128.459 107.127 128.534 108.286C128.571 108.862 128.592 109.438 128.596 110.015C128.6 110.62 128.528 111.239 128.608 111.84C128.641 112.086 129.13 112.192 129.197 111.903C129.42 110.954 129.315 109.918 129.272 108.957C129.226 107.965 129.131 106.974 128.988 105.987C128.701 104.022 128.229 102.076 127.555 100.172C126.239 96.4573 124.208 92.8345 124.024 88.9232C123.925 86.8522 124.367 84.7724 125.668 82.961C125.797 82.7842 125.457 82.6259 125.325 82.8019Z" fill="#B79D8B"/>
<path d="M126.292 81.6712C127.048 80.6706 128.148 79.8871 129.414 79.3141C129.595 79.2321 129.436 79.0256 129.254 79.0939C127.885 79.6058 126.762 80.4962 125.999 81.5337C125.887 81.6848 126.178 81.8206 126.292 81.6712Z" fill="#B79D8B"/>
<path d="M102.356 64.6718C109.503 66.3964 116.725 68.6764 122.464 72.6029C123.258 73.147 124.022 73.7216 124.748 74.3235C125.478 74.9287 126.1 75.6206 126.84 76.2137C127.011 76.3503 127.3 76.1751 127.176 76.0063C126.719 75.3899 126.053 74.8451 125.446 74.3219C124.8 73.765 124.122 73.2338 123.413 72.7291C122.026 71.7422 120.534 70.8518 118.976 70.0474C115.773 68.3943 112.291 67.1045 108.722 66.0493C106.657 65.4385 104.559 64.9041 102.444 64.4155C102.238 64.3673 102.151 64.6228 102.356 64.6718Z" fill="#B79D8B"/>
<path d="M84.2506 64.8036C86.5886 64.6662 88.9275 64.5473 91.2655 64.4203C92.4144 64.3576 93.5643 64.299 94.7142 64.2427C95.7788 64.1913 97.0692 64.2829 98.0857 64.008C98.2312 63.9687 98.2553 63.7814 98.0857 63.7509C97.0753 63.5717 95.8631 63.7653 94.8376 63.8152C93.6466 63.8738 92.4555 63.9357 91.2655 64.0008C88.9245 64.1302 86.5866 64.2973 84.2506 64.4725C83.9908 64.4934 83.9847 64.8197 84.2506 64.8036Z" fill="#B79D8B"/>
<path d="M131.081 78.8769C131.474 78.8448 131.872 78.8447 132.265 78.8809C132.447 78.8978 132.628 78.9243 132.806 78.9573C133.011 78.995 133.256 79.0722 133.435 78.9468C133.487 78.9106 133.499 78.8488 133.484 78.7973C133.429 78.6109 133.131 78.5651 132.932 78.5265C132.725 78.4871 132.517 78.459 132.306 78.4365C131.9 78.3947 131.489 78.3883 131.081 78.418C130.927 78.4293 130.795 78.5153 130.795 78.6471C130.795 78.762 130.926 78.8898 131.081 78.8769Z" fill="#B79D8B"/>
<path d="M71.8385 145.904C82.573 145.799 93.3115 145.468 104.043 145.224C107.086 145.154 110.158 145.175 113.19 144.958C113.396 144.944 113.403 144.704 113.19 144.698C110.522 144.627 107.839 144.758 105.171 144.817C102.456 144.876 99.7404 144.938 97.0261 144.999C91.68 145.12 86.3328 145.234 80.9866 145.362C77.9372 145.434 74.8868 145.497 71.8395 145.603C71.5977 145.611 71.5956 145.906 71.8385 145.904Z" fill="#555555"/>
<path d="M116.086 144.742C117.281 144.704 118.477 144.688 119.674 144.701C120.272 144.708 120.87 144.724 121.468 144.739C122.023 144.753 122.618 144.799 123.162 144.688C123.316 144.657 123.288 144.499 123.162 144.459C122.638 144.294 122.025 144.291 121.468 144.27C120.871 144.245 120.272 144.237 119.674 144.232C118.478 144.22 117.282 144.234 116.086 144.273C115.71 144.285 115.708 144.754 116.086 144.742Z" fill="#555555"/>
<path d="M100.786 157.96C101.199 157.96 101.613 157.96 102.026 157.96C102.171 157.96 102.311 157.857 102.304 157.738C102.297 157.617 102.182 157.515 102.026 157.515C101.613 157.515 101.199 157.515 100.786 157.515C100.64 157.515 100.501 157.618 100.508 157.738C100.514 157.858 100.629 157.96 100.786 157.96Z" fill="#555555"/>
<path d="M102.201 199.603C102.51 199.381 102.819 199.16 103.128 198.939C103.433 198.72 103.745 198.488 104.004 198.233C104.06 198.177 104.078 198.103 104.018 198.042C103.964 197.988 103.862 197.966 103.785 198.006C103.601 198.097 103.435 198.206 103.264 198.313C103.097 198.417 102.932 198.521 102.772 198.632C102.454 198.854 102.135 199.075 101.817 199.297C101.707 199.374 101.719 199.525 101.817 199.604C101.926 199.69 102.091 199.681 102.201 199.603Z" fill="#555555"/>
<path d="M82.1284 213.21C81.708 213.034 81.2063 213.242 81.0808 213.597C80.9514 213.965 81.3046 214.311 81.733 214.408C82.1966 214.512 82.6582 214.313 82.895 213.992C83.1298 213.674 83.1348 213.238 82.8468 212.94C82.6903 212.778 82.4585 212.664 82.1946 212.67C81.9267 212.675 81.6046 212.784 81.5755 213.023C81.5855 212.993 81.5956 212.963 81.6056 212.932C81.5394 213.013 81.5053 213.117 81.5173 213.214C81.5263 213.289 81.5815 213.353 81.6799 213.362C81.7652 213.37 81.8695 213.329 81.8866 213.255C81.8896 213.239 81.8946 213.226 81.8996 213.21C81.9106 213.177 81.8856 213.222 81.9096 213.195C81.9157 213.188 81.9488 213.156 81.9187 213.182C81.9307 213.171 81.9438 213.161 81.9578 213.151C81.9247 213.166 81.8916 213.181 81.8585 213.197C81.9357 213.184 81.9969 213.148 82.0632 213.118C82.0742 213.113 82.0862 213.108 82.0983 213.103C82.0451 213.125 82.0832 213.108 82.0993 213.104C82.1153 213.101 82.1304 213.097 82.1465 213.094C82.1695 213.09 82.2127 213.093 82.1545 213.091C82.1866 213.092 82.2197 213.091 82.2528 213.091C82.1956 213.091 82.2237 213.087 82.2408 213.091C82.2588 213.096 82.2779 213.1 82.297 213.104C82.2859 213.102 82.2458 213.083 82.2899 213.103C82.306 213.11 82.322 213.117 82.3381 213.125C82.3511 213.132 82.3853 213.157 82.3461 213.128C82.3622 213.14 82.3782 213.152 82.3933 213.165C82.4033 213.173 82.4124 213.182 82.4224 213.191C82.3822 213.154 82.4274 213.198 82.4324 213.205C82.4505 213.227 82.4645 213.251 82.4806 213.275C82.5007 213.304 82.4625 213.228 82.4836 213.282C82.4886 213.293 82.4936 213.304 82.4976 213.316C82.5107 213.351 82.5207 213.387 82.5277 213.423C82.5177 213.373 82.5277 213.452 82.5287 213.466C82.5298 213.493 82.5267 213.52 82.5247 213.547C82.5207 213.607 82.5388 213.505 82.5217 213.563C82.5177 213.575 82.5157 213.587 82.5117 213.599C82.5007 213.636 82.4856 213.671 82.4706 213.707C82.4665 213.716 82.4485 213.743 82.4706 213.707C82.4615 213.721 82.4535 213.735 82.4445 213.749C82.4284 213.774 82.4103 213.798 82.3913 213.821C82.3923 213.82 82.3471 213.869 82.3712 213.844C82.3953 213.82 82.3471 213.866 82.3481 213.865C82.32 213.89 82.2879 213.913 82.2568 213.935C82.2257 213.959 82.307 213.91 82.2468 213.941C82.2337 213.947 82.2217 213.955 82.2087 213.96C82.1886 213.97 82.1685 213.978 82.1485 213.987C82.1374 213.991 82.1033 213.999 82.1485 213.987C82.1123 213.996 82.0782 214.004 82.0421 214.012C82.026 214.015 81.9959 214.012 82.0501 214.012C82.0291 214.012 82.008 214.014 81.9869 214.014C81.9658 214.014 81.9448 214.012 81.9237 214.012C81.9066 214.011 81.8815 214.001 81.9307 214.012C81.8966 214.005 81.8625 214 81.8284 213.991C81.8153 213.988 81.8023 213.984 81.7892 213.98C81.8484 213.998 81.7852 213.978 81.7752 213.973C81.7441 213.96 81.715 213.945 81.6859 213.929C81.731 213.954 81.6929 213.934 81.6819 213.925C81.6698 213.915 81.6568 213.906 81.6447 213.896C81.6347 213.888 81.6267 213.88 81.6177 213.871C81.6578 213.907 81.6166 213.869 81.6096 213.86C81.6026 213.852 81.5966 213.841 81.5896 213.832C81.5564 213.792 81.5936 213.856 81.5865 213.83C81.5825 213.817 81.5755 213.804 81.5705 213.791C81.5665 213.779 81.5625 213.733 81.5645 213.779C81.5635 213.766 81.5635 213.751 81.5625 213.738C81.5625 213.73 81.5635 213.721 81.5645 213.713C81.5595 213.74 81.5595 213.742 81.5645 213.718C81.5685 213.708 81.5725 213.697 81.5755 213.686C81.5896 213.639 81.5514 213.717 81.5805 213.673C81.5886 213.661 81.5966 213.648 81.6056 213.637C81.6126 213.627 81.6588 213.583 81.6207 213.617C81.6437 213.596 81.6678 213.576 81.6929 213.557C81.708 213.545 81.723 213.534 81.7391 213.524C81.707 213.545 81.7421 213.524 81.7561 213.516C81.7672 213.51 81.7782 213.504 81.7902 213.499C81.8023 213.493 81.8454 213.479 81.8083 213.49C81.8264 213.484 81.8454 213.48 81.8645 213.476C81.8284 213.482 81.8745 213.478 81.8876 213.478C81.9277 213.478 81.9026 213.48 81.8926 213.478C81.9197 213.482 81.9448 213.489 81.9709 213.497C82.0622 213.526 82.1715 213.472 82.2057 213.405C82.2448 213.338 82.2177 213.247 82.1284 213.21Z" fill="#555555"/>
<path d="M96.2324 218.074C96.0297 218.366 96.0849 218.74 96.3328 219.004C96.4652 219.145 96.6388 219.255 96.8515 219.308C97.0713 219.363 97.3031 219.34 97.5088 219.263C97.9121 219.114 98.154 218.755 98.0897 218.405C98.0616 218.253 97.9653 218.104 97.8168 218.006C97.6603 217.902 97.4787 217.85 97.278 217.834C97.0793 217.818 96.8686 217.855 96.694 217.933C96.5997 217.974 96.5104 218.031 96.4572 218.106C96.403 218.182 96.3759 218.263 96.3649 218.35C96.3488 218.478 96.5806 218.512 96.6549 218.412C96.6629 218.401 96.6729 218.39 96.6819 218.379C96.693 218.366 96.6779 218.383 96.6759 218.384C96.6799 218.38 96.685 218.376 96.689 218.372C96.7 218.362 96.71 218.354 96.7221 218.345C96.7281 218.34 96.7662 218.315 96.7432 218.329C96.7201 218.343 96.7592 218.321 96.7662 218.317C96.7893 218.304 96.8104 218.291 96.8325 218.277C96.8375 218.274 96.8435 218.27 96.8485 218.267C96.8696 218.252 96.8134 218.285 96.8375 218.274C96.8515 218.268 96.8646 218.26 96.8786 218.252C96.8927 218.246 96.9067 218.24 96.9218 218.233C96.9278 218.231 96.9348 218.228 96.9408 218.226C96.9589 218.226 96.9549 218.22 96.9408 218.226C96.9268 218.23 96.9218 218.226 96.9408 218.226C96.9499 218.223 96.9589 218.22 96.9679 218.218C96.984 218.214 97 218.21 97.0161 218.207C97.0321 218.203 97.0964 218.2 97.1074 218.191C97.0964 218.201 97.0602 218.194 97.0913 218.194C97.0984 218.194 97.1054 218.193 97.1134 218.192C97.1305 218.191 97.1475 218.19 97.1636 218.19C97.1977 218.19 97.2308 218.192 97.2649 218.195C97.3071 218.197 97.2208 218.187 97.2619 218.195C97.281 218.198 97.299 218.2 97.3181 218.204C97.3482 218.211 97.3773 218.219 97.4064 218.227C97.4295 218.232 97.3853 218.22 97.3843 218.219C97.3853 218.222 97.4004 218.225 97.4034 218.227C97.4205 218.234 97.4365 218.24 97.4526 218.248C97.4646 218.254 97.4756 218.26 97.4877 218.267C97.5298 218.289 97.4626 218.247 97.4917 218.268C97.5017 218.276 97.5519 218.325 97.5609 218.325C97.5599 218.325 97.5338 218.293 97.5469 218.309C97.5509 218.314 97.5549 218.319 97.5589 218.323C97.568 218.334 97.577 218.346 97.585 218.358C97.589 218.364 97.6111 218.401 97.5981 218.377C97.585 218.354 97.5971 218.375 97.5991 218.379C97.6031 218.39 97.6081 218.4 97.6111 218.411C97.6151 218.424 97.6171 218.436 97.6211 218.449C97.6292 218.474 97.6201 218.411 97.6191 218.437C97.6191 218.444 97.6201 218.45 97.6211 218.456C97.6221 218.466 97.6181 218.547 97.6171 218.547C97.6131 218.546 97.6292 218.507 97.6201 218.527C97.6171 218.533 97.6171 218.54 97.6151 218.546C97.6111 218.562 97.6061 218.576 97.6011 218.591C97.5961 218.604 97.591 218.616 97.585 218.628C97.5659 218.673 97.6051 218.6 97.578 218.641C97.5609 218.667 97.5439 218.693 97.5258 218.718C97.5158 218.731 97.5057 218.744 97.4947 218.758C97.4897 218.763 97.4847 218.769 97.4807 218.775C97.4596 218.8 97.4897 218.771 97.4897 218.766C97.4897 218.783 97.4315 218.819 97.4164 218.831C97.4024 218.842 97.3873 218.852 97.3733 218.862C97.3432 218.885 97.4114 218.842 97.3653 218.868C97.3352 218.884 97.3051 218.899 97.273 218.913C97.2689 218.915 97.2439 218.925 97.2429 218.924C97.2419 218.923 97.291 218.911 97.2649 218.917C97.2469 218.922 97.2288 218.927 97.2107 218.932C97.1927 218.936 97.1736 218.939 97.1545 218.943C97.1525 218.943 97.1305 218.947 97.1305 218.948C97.1305 218.945 97.1827 218.944 97.1556 218.944C97.1164 218.944 97.0773 218.944 97.0382 218.944C97.005 218.944 97.0863 218.953 97.0542 218.946C97.0462 218.944 97.0382 218.943 97.0301 218.942C97.0141 218.939 96.998 218.936 96.983 218.932C96.9649 218.928 96.9478 218.922 96.9298 218.918C96.9027 218.912 96.9529 218.924 96.9509 218.925C96.9489 218.927 96.9248 218.915 96.9218 218.914C96.8876 218.9 96.8565 218.884 96.8254 218.867C96.7883 218.848 96.8555 218.89 96.8234 218.866C96.8074 218.854 96.7913 218.842 96.7753 218.83C96.7622 218.82 96.7492 218.808 96.7361 218.797C96.7311 218.792 96.7261 218.788 96.7201 218.783C96.685 218.751 96.7381 218.806 96.7221 218.785C96.7 218.757 96.6759 218.731 96.6559 218.702C96.6448 218.686 96.6358 218.67 96.6258 218.654C96.6227 218.649 96.6127 218.628 96.6247 218.653C96.6368 218.678 96.6237 218.649 96.6217 218.645C96.6087 218.613 96.5957 218.582 96.5866 218.55C96.5826 218.537 96.5706 218.511 96.5746 218.498C96.5756 218.497 96.5766 218.538 96.5776 218.515C96.5776 218.505 96.5746 218.493 96.5746 218.482C96.5726 218.449 96.5776 218.417 96.5776 218.384C96.5776 218.362 96.5756 218.402 96.5746 218.401C96.5716 218.396 96.5786 218.381 96.5806 218.375C96.5846 218.358 96.5896 218.342 96.5956 218.325C96.6007 218.31 96.6087 218.296 96.6137 218.281C96.6217 218.258 96.5926 218.309 96.6097 218.289C96.6167 218.28 96.6227 218.268 96.6288 218.259C96.684 218.174 96.6589 218.056 96.5465 218.009C96.4371 217.963 96.2946 217.985 96.2324 218.074Z" fill="#555555"/>
<path d="M122.916 214.597C122.49 214.566 122.062 214.802 121.888 215.106C121.788 215.28 121.75 215.465 121.805 215.654C121.857 215.829 121.994 215.973 122.173 216.077C122.487 216.261 122.926 216.275 123.273 216.148C123.672 216.004 123.857 215.628 123.73 215.299C123.655 215.106 123.502 214.945 123.297 214.828C123.209 214.777 123.103 214.738 122.996 214.719C122.932 214.707 122.864 214.7 122.798 214.703C122.675 214.707 122.595 214.733 122.502 214.796C122.427 214.847 122.404 214.943 122.43 215.015C122.458 215.096 122.532 215.145 122.626 215.173C122.677 215.187 122.73 215.191 122.783 215.193C122.79 215.193 122.798 215.194 122.805 215.194C122.856 215.194 122.763 215.19 122.767 215.189C122.774 215.186 122.808 215.195 122.817 215.196C122.848 215.202 122.877 215.212 122.908 215.218C122.826 215.203 122.865 215.203 122.894 215.215C122.912 215.222 122.929 215.23 122.945 215.238C122.958 215.244 122.969 215.252 122.982 215.258C123.009 215.271 122.947 215.235 122.949 215.237C122.955 215.243 122.965 215.248 122.972 215.252C122.999 215.271 123.025 215.292 123.048 215.313C123.053 215.317 123.058 215.322 123.063 215.327C123.085 215.345 123.036 215.298 123.038 215.301C123.046 215.313 123.059 215.324 123.068 215.336C123.087 215.36 123.104 215.385 123.12 215.411C123.149 215.457 123.099 215.363 123.115 215.403C123.12 215.414 123.125 215.426 123.129 215.437C123.134 215.451 123.138 215.465 123.142 215.478C123.144 215.484 123.145 215.49 123.146 215.496C123.156 215.531 123.141 215.465 123.141 215.465C123.154 215.478 123.145 215.533 123.144 215.548C123.144 215.554 123.142 215.56 123.142 215.566C123.142 215.591 123.145 215.524 123.148 215.529C123.153 215.535 123.138 215.567 123.135 215.575C123.131 215.587 123.124 215.598 123.121 215.61C123.133 215.558 123.148 215.563 123.135 215.583C123.131 215.589 123.128 215.595 123.125 215.6C123.117 215.612 123.108 215.624 123.099 215.636C123.095 215.64 123.09 215.645 123.087 215.649C123.073 215.671 123.133 215.609 123.111 215.624C123.089 215.64 123.072 215.659 123.05 215.674C123.047 215.676 123.029 215.688 123.029 215.688C123.027 215.686 123.088 215.654 123.065 215.665C123.052 215.671 123.039 215.679 123.026 215.685C123.013 215.691 122.998 215.698 122.984 215.702C122.957 215.713 122.912 215.718 123.004 215.697C122.974 215.704 122.945 215.714 122.914 215.72C122.901 215.722 122.888 215.725 122.874 215.727C122.87 215.728 122.847 215.731 122.847 215.731C122.847 215.731 122.922 215.725 122.896 215.726C122.864 215.727 122.832 215.73 122.8 215.73C122.791 215.73 122.71 215.723 122.709 215.725C122.711 215.72 122.806 215.738 122.732 215.726C122.716 215.724 122.699 215.721 122.684 215.718C122.655 215.713 122.627 215.705 122.598 215.697C122.535 215.68 122.658 215.721 122.616 215.703C122.6 215.697 122.583 215.69 122.567 215.683C122.541 215.672 122.517 215.658 122.493 215.645L122.477 215.636C122.478 215.632 122.533 215.675 122.514 215.658C122.502 215.648 122.487 215.639 122.474 215.629C122.465 215.621 122.456 215.613 122.446 215.606C122.401 215.569 122.482 215.649 122.456 215.618C122.438 215.596 122.423 215.575 122.406 215.552C122.384 215.521 122.433 215.614 122.411 215.56C122.406 215.548 122.401 215.536 122.397 215.523C122.393 215.512 122.381 215.49 122.385 215.48C122.387 215.475 122.392 215.541 122.391 215.514C122.391 215.506 122.389 215.497 122.388 215.489C122.386 215.459 122.39 215.43 122.391 215.4C122.392 215.375 122.384 215.436 122.385 215.434C122.388 215.428 122.387 215.421 122.389 215.415C122.394 215.399 122.398 215.383 122.404 215.366C122.409 215.351 122.415 215.337 122.422 215.323C122.425 215.316 122.431 215.307 122.434 215.299C122.432 215.306 122.403 215.35 122.423 215.321C122.442 215.292 122.46 215.263 122.483 215.236C122.489 215.229 122.534 215.179 122.503 215.213C122.472 215.247 122.519 215.199 122.527 215.192C122.552 215.17 122.595 215.149 122.615 215.125C122.615 215.125 122.563 215.155 122.588 215.142C122.599 215.137 122.61 215.129 122.621 215.124C122.637 215.116 122.653 215.108 122.669 215.1C122.687 215.092 122.708 215.085 122.727 215.076C122.751 215.064 122.693 215.087 122.693 215.087C122.703 215.085 122.713 215.08 122.724 215.078C122.764 215.067 122.809 215.064 122.847 215.053C122.847 215.053 122.781 215.057 122.811 215.057C122.821 215.057 122.832 215.055 122.843 215.055C122.867 215.055 122.892 215.055 122.916 215.056C123.066 215.064 123.208 214.946 123.202 214.827C123.194 214.692 123.076 214.608 122.916 214.597Z" fill="#555555"/>
<path d="M152.225 46.2846L149.508 48.7936L151.343 51.3001" stroke="#34B77E" stroke-width="0.7561" stroke-miterlimit="10" stroke-linecap="round" stroke-linejoin="round"/>
<path d="M157.947 46.2846L159.784 48.7936L157.069 51.3001" stroke="#34B77E" stroke-width="0.7561" stroke-miterlimit="10" stroke-linecap="round" stroke-linejoin="round"/>
<path d="M153.167 51.7301L155.929 46.2846" stroke="#34B77E" stroke-width="0.7561" stroke-miterlimit="10" stroke-linecap="round" stroke-linejoin="round"/>
<path d="M162.322 51.7743C162.254 52.1648 161.911 52.4823 161.555 52.4823C161.2 52.4823 160.968 52.1656 161.038 51.7743C161.106 51.3837 161.449 51.0663 161.804 51.0663C162.158 51.0663 162.39 51.3837 162.322 51.7743Z" fill="#34B77E"/>
<path d="M164.98 51.7743C164.912 52.1648 164.569 52.4823 164.214 52.4823C163.859 52.4823 163.627 52.1656 163.696 51.7743C163.764 51.3837 164.107 51.0663 164.462 51.0663C164.817 51.0663 165.048 51.3837 164.98 51.7743Z" fill="#34B77E"/>
<path d="M167.638 51.7743C167.57 52.1648 167.227 52.4823 166.872 52.4823C166.517 52.4823 166.285 52.1656 166.354 51.7743C166.422 51.3837 166.765 51.0663 167.12 51.0663C167.475 51.0663 167.707 51.3837 167.638 51.7743Z" fill="#34B77E"/>
<path d="M148.236 56.0408H224.142" stroke="#34B77E" stroke-width="0.6933" stroke-miterlimit="10" stroke-linecap="round" stroke-linejoin="round"/>
<path d="M147.689 59.1557H193.291" stroke="#00FCFF" stroke-width="0.7803" stroke-miterlimit="10" stroke-linecap="round" stroke-linejoin="round"/>
<path d="M196.84 59.1557H223.596" stroke="#00FCFF" stroke-width="0.7692" stroke-miterlimit="10" stroke-linecap="round" stroke-linejoin="round"/>
<path d="M222.997 62.5679H185.461" stroke="#00FCFF" stroke-width="0.7692" stroke-miterlimit="10" stroke-linecap="round" stroke-linejoin="round"/>
<path d="M201.931 46.2846H226.035" stroke="#E1F0FF" stroke-width="0.6933" stroke-miterlimit="10" stroke-linecap="round" stroke-linejoin="round"/>
<path d="M198.733 49.3987H225.488" stroke="#E1F0FF" stroke-width="0.7692" stroke-miterlimit="10" stroke-linecap="round" stroke-linejoin="round"/>
<path d="M224.89 52.811H187.353" stroke="#E1F0FF" stroke-width="0.7692" stroke-miterlimit="10" stroke-linecap="round" stroke-linejoin="round"/>
<path d="M182.412 62.5679H177.94" stroke="#00FCFF" stroke-width="0.7803" stroke-miterlimit="10" stroke-linecap="round" stroke-linejoin="round"/>
<path d="M174.388 62.5679H169.917" stroke="#00FCFF" stroke-width="0.7803" stroke-miterlimit="10" stroke-linecap="round" stroke-linejoin="round"/>
<path d="M166.365 62.5679H161.894" stroke="#00FCFF" stroke-width="0.7803" stroke-miterlimit="10" stroke-linecap="round" stroke-linejoin="round"/>
<path d="M158.342 62.5679H153.869" stroke="#00FCFF" stroke-width="0.7803" stroke-miterlimit="10" stroke-linecap="round" stroke-linejoin="round"/>
<path d="M222.269 66.7163H151.713" stroke="#FF4F92" stroke-width="0.6933" stroke-miterlimit="10" stroke-linecap="round" stroke-linejoin="round"/>
<path d="M148.704 62.5679H147.09" stroke="#00FCFF" stroke-width="0.7803" stroke-miterlimit="10" stroke-linecap="round" stroke-linejoin="round"/>
<path d="M147.976 66.7163H146.363" stroke="#00FCFF" stroke-width="0.7803" stroke-miterlimit="10" stroke-linecap="round" stroke-linejoin="round"/>
<path d="M147.248 70.8655H145.634" stroke="#00FCFF" stroke-width="0.7803" stroke-miterlimit="10" stroke-linecap="round" stroke-linejoin="round"/>
<path d="M146.52 75.0146H144.907" stroke="#00FCFF" stroke-width="0.7803" stroke-miterlimit="10" stroke-linecap="round" stroke-linejoin="round"/>
<path d="M152.249 70.8655H171.649" stroke="#FF4F92" stroke-width="0.905" stroke-miterlimit="10" stroke-linecap="round" stroke-linejoin="round"/>
<path d="M151.502 75.1167H177.238" stroke="#FF4F92" stroke-width="0.905" stroke-miterlimit="10" stroke-linecap="round" stroke-linejoin="round"/>
<path d="M150.757 79.3671H185.658" stroke="#E1F0FF" stroke-width="0.7692" stroke-miterlimit="10" stroke-linecap="round" stroke-linejoin="round"/>
<path d="M173.695 70.8655H221.541" stroke="#FF8B00" stroke-width="0.7803" stroke-miterlimit="10" stroke-linecap="round" stroke-linejoin="round"/>
<path d="M179.083 75.1167H220.795" stroke="#FF8B00" stroke-width="0.7803" stroke-miterlimit="10" stroke-linecap="round" stroke-linejoin="round"/>
<path d="M187.81 79.3671H220.048" stroke="#E1F0FF" stroke-width="0.7692" stroke-miterlimit="10" stroke-linecap="round" stroke-linejoin="round"/>
<path d="M109.078 19.0775L148.495 18.8187C152.717 18.7906 156.11 16.0277 156.076 12.6468L156.01 6.13494C155.975 2.75404 152.525 0.0361435 148.304 0.0634672L108.886 0.32224C104.665 0.350367 101.272 3.11327 101.306 6.49417L101.372 13.006C101.407 16.3869 104.857 19.1056 109.078 19.0775Z" fill="#B6C4B9"/>
<path d="M120.803 18.1003L112.576 23.025C112.25 23.2203 111.793 22.9985 111.857 22.6762L113.105 16.4995L120.803 18.1003Z" fill="#B6C4B9"/>
<path d="M113.873 9.15568V8.7635C114.313 8.7635 114.619 8.68973 114.793 8.54218C114.969 8.39455 115.057 8.14792 115.057 7.8021V6.79005C115.057 6.49909 115.091 6.24713 115.161 6.03419C115.231 5.82124 115.345 5.64519 115.504 5.50603C115.661 5.36687 115.872 5.26355 116.136 5.19609C116.399 5.12862 116.724 5.09488 117.111 5.09488V5.71476C116.805 5.71476 116.564 5.75271 116.388 5.82862C116.214 5.90452 116.091 6.02259 116.018 6.18283C115.946 6.34096 115.91 6.54337 115.91 6.79005V8.0551C115.91 8.2196 115.883 8.36924 115.828 8.50417C115.775 8.63918 115.676 8.75507 115.531 8.85206C115.386 8.94906 115.18 9.02396 114.912 9.0766C114.646 9.12932 114.3 9.15568 113.873 9.15568ZM117.111 13.1912C116.724 13.1912 116.399 13.1575 116.136 13.09C115.872 13.0225 115.661 12.9193 115.504 12.7801C115.345 12.641 115.231 12.4649 115.161 12.2519C115.091 12.039 115.057 11.787 115.057 11.496V10.484C115.057 10.1382 114.969 9.89157 114.793 9.74394C114.619 9.59639 114.313 9.52254 113.873 9.52254V9.13044C114.3 9.13044 114.646 9.15672 114.912 9.20944C115.18 9.26216 115.386 9.33706 115.531 9.43398C115.676 9.53098 115.775 9.64694 115.828 9.78187C115.883 9.91688 115.91 10.0665 115.91 10.231V11.496C115.91 11.7427 115.946 11.9452 116.018 12.1033C116.091 12.2614 116.214 12.3784 116.388 12.4544C116.564 12.5323 116.805 12.5714 117.111 12.5714V13.1912ZM113.873 9.52254V8.7635H114.804V9.52254H113.873ZM124.236 9.13044V9.52254C123.796 9.52254 123.488 9.59639 123.311 9.74394C123.138 9.89157 123.051 10.1382 123.051 10.484V11.496C123.051 11.787 123.015 12.039 122.944 12.2519C122.876 12.4649 122.763 12.641 122.605 12.7801C122.446 12.9193 122.236 13.0225 121.973 13.09C121.71 13.1575 121.385 13.1912 120.998 13.1912V12.5714C121.303 12.5714 121.542 12.5323 121.716 12.4544C121.893 12.3784 122.016 12.2614 122.087 12.1033C122.161 11.9452 122.198 11.7427 122.198 11.496V10.231C122.198 10.0665 122.225 9.91688 122.277 9.78187C122.332 9.64694 122.432 9.53098 122.577 9.43398C122.721 9.33706 122.927 9.26216 123.193 9.20944C123.462 9.15672 123.809 9.13044 124.236 9.13044ZM120.998 5.09488C121.385 5.09488 121.71 5.12862 121.973 5.19609C122.236 5.26355 122.446 5.36687 122.605 5.50603C122.763 5.64519 122.876 5.82124 122.944 6.03419C123.015 6.24713 123.051 6.49909 123.051 6.79005V7.8021C123.051 8.14792 123.138 8.39455 123.311 8.54218C123.488 8.68973 123.796 8.7635 124.236 8.7635V9.15568C123.809 9.15568 123.462 9.12932 123.193 9.0766C122.927 9.02396 122.721 8.94906 122.577 8.85206C122.432 8.75507 122.332 8.63918 122.277 8.50417C122.225 8.36924 122.198 8.2196 122.198 8.0551V6.79005C122.198 6.54337 122.161 6.34096 122.087 6.18283C122.016 6.02259 121.893 5.90452 121.716 5.82862C121.542 5.75271 121.303 5.71476 120.998 5.71476V5.09488ZM124.236 8.7635V9.52254H123.303V8.7635H124.236Z" fill="white"/>
<path d="M130.695 8.83245V8.33612L135.683 6.30116V7.09529L131.857 8.57191L131.887 8.52225V8.64633L131.857 8.59674L135.683 10.0733V10.8675L130.695 8.83245ZM143.492 4.41507L140.936 12.0214H140.1L142.656 4.41507H143.492ZM152.896 8.83245L147.907 10.8675V10.0733L151.734 8.59674L151.703 8.64633V8.52225L151.734 8.57191L147.907 7.09529V6.30116L152.896 8.33612V8.83245Z" fill="white"/>
</g>
</g>
<defs>
<clipPath id="clip0_7_30">
<rect width="294" height="221" fill="white"/>
</clipPath>
</defs>
</svg>
