<svg width="271" height="248" viewBox="0 0 271 248" fill="none" xmlns="http://www.w3.org/2000/svg">
<g clip-path="url(#clip0_7_178)">
<path d="M80.453 70.024L7.58203 78.971V10.135L80.453 1.18799V70.024Z" fill="#F4DFCF"/>
<path d="M37.082 26.659L28.306 27.736V18.104L37.082 17.027V26.659Z" fill="#70A4D4"/>
<path d="M67.291 34.13L61.553 34.834V28.362L67.291 27.657V34.13Z" fill="#70A4D4"/>
<path d="M60.965 26.08L47.725 27.706V9.75802L60.965 8.13202V26.08Z" fill="#FDF7F3"/>
<path d="M58.1701 45.4L52.1381 46.141V41.581L58.1701 40.84V45.4Z" fill="#70A4D4"/>
<path d="M58.023 67.338L44.783 68.964V50.428L58.023 48.802V67.338Z" fill="#FDF7F3"/>
<path d="M36.1031 60.467L21.5391 62.256V44.014L36.1031 42.226V60.467Z" fill="#FDF7F3"/>
<path d="M37.365 73.501L30.418 72.431L32.34 65.247L39.287 66.317L37.365 73.501Z" fill="#3E417F"/>
<path d="M26.835 36.155L18.597 37.167V28.928L26.835 27.917V36.155Z" fill="#E4A750"/>
<path d="M68.468 22.511L60.082 23.54V15.155L68.468 14.125V22.511Z" fill="#E4A750"/>
<path d="M23.451 66.728L17.273 67.487V59.249L23.451 58.49V66.728Z" fill="#E4A750"/>
<path d="M63.172 56.997L55.816 57.9V49.662L63.172 48.758V56.997Z" fill="#3E417F"/>
<path d="M134.107 110.08L133.389 193.533C133.365 196.335 135.478 198.695 138.266 198.979L192.225 204.474C195.415 204.799 198.189 202.303 198.202 199.097L198.583 106.449" stroke="black" stroke-width="3.3567" stroke-miterlimit="10"/>
<path d="M0.889038 125.342L134.757 97.928L218.856 103.657L90.329 135.344L0.889038 125.342Z" fill="black"/>
<path d="M119.434 108.679C119.434 108.679 113.881 108.459 112.041 105.64C110.202 102.82 115.298 90.597 115.298 90.597L100.537 93.611C100.537 93.611 95.441 105.834 97.28 108.654C99.119 111.474 103.657 111.846 103.657 111.846L106.163 111.573L119.434 108.679Z" fill="#555555"/>
<path d="M120.969 108.558C120.969 108.558 115.416 108.338 113.576 105.519C111.736 102.7 116.833 90.476 116.833 90.476L102.072 93.49C102.072 93.49 96.976 105.713 98.816 108.533C100.655 111.353 106.209 111.572 106.209 111.572L120.969 108.558Z" fill="#555555"/>
<path d="M71.788 44.194L145.486 37.074L145.427 87.783L72.144 99.24L71.788 44.194Z" fill="black"/>
<path d="M72.09 92.104L72.144 100.803L145.486 89.766V82.229L72.09 92.104Z" fill="#555555"/>
<path d="M71.788 44.194L68.791 46.667L69.254 98.614L72.144 100.803L71.788 44.194Z" fill="#555555"/>
<path d="M112.114 90.902C112.017 92.004 111.175 92.831 110.235 92.748C109.294 92.665 108.611 91.704 108.708 90.602C108.805 89.5 109.647 88.673 110.587 88.756C111.527 88.839 112.211 89.8 112.114 90.902Z" fill="#555555"/>
<path d="M9.87601 129.04L9.55001 233.863C9.54201 236.446 11.503 238.609 14.074 238.854L75.271 244.685C78.197 244.964 80.732 242.669 80.744 239.729L81.17 135.232" stroke="black" stroke-width="3.7116" stroke-miterlimit="10"/>
<path d="M88.067 116.742V118.479L116.304 120.504L161.92 110.953L161.979 109.544L135.472 109.087L88.067 116.742Z" fill="#555555"/>
<path d="M88.067 116.742L136.782 107.449L161.979 109.544L116.078 118.996L88.067 116.742Z" fill="#555555"/>
<path d="M0.942026 125.33L89.973 130.715V138.548L1.29803 133.163C1.29803 133.163 0.586026 124.974 0.942026 125.33Z" fill="black"/>
<path d="M218.856 103.657L89.973 130.715V138.548L218.856 109.354V103.657Z" fill="black"/>
<path d="M79.0531 51.3049L76.3881 54.7259L79.0501 57.3459" stroke="#34B77E" stroke-width="0.8063" stroke-miterlimit="10" stroke-linecap="round" stroke-linejoin="round"/>
<path d="M85.751 50.3019L88.417 52.9259L85.754 56.3429" stroke="#34B77E" stroke-width="0.8063" stroke-miterlimit="10" stroke-linecap="round" stroke-linejoin="round"/>
<path d="M81.274 57.5319L83.389 50.6559" stroke="#34B77E" stroke-width="0.8063" stroke-miterlimit="10" stroke-linecap="round" stroke-linejoin="round"/>
<path d="M92.0001 55.98C92.0001 56.451 91.6631 56.8829 91.2481 56.9449C90.8331 57.0069 90.4961 56.676 90.4961 56.205C90.4961 55.734 90.8331 55.3019 91.2481 55.2399C91.6631 55.1779 92.0001 55.509 92.0001 55.98Z" fill="#34B77E"/>
<path d="M95.112 55.5139C95.112 55.9849 94.775 56.4169 94.36 56.4789C93.945 56.5409 93.608 56.2099 93.608 55.7389C93.608 55.2679 93.945 54.8359 94.36 54.7739C94.775 54.7119 95.112 55.0439 95.112 55.5139Z" fill="#34B77E"/>
<path d="M98.2231 55.049C98.2231 55.52 97.8861 55.952 97.4711 56.014C97.0561 56.076 96.7191 55.745 96.7191 55.274C96.7191 54.803 97.0551 54.371 97.4711 54.309C97.8871 54.247 98.2231 54.578 98.2231 55.049Z" fill="#34B77E"/>
<path d="M76.3881 63.456L140.314 53.89" stroke="#34B77E" stroke-width="0.7392" stroke-miterlimit="10" stroke-linecap="round" stroke-linejoin="round"/>
<path d="M76.3881 67.207L129.767 59.22" stroke="#00FCFF" stroke-width="0.8321" stroke-miterlimit="10" stroke-linecap="round" stroke-linejoin="round"/>
<path d="M133.922 58.598L140.314 57.642" stroke="#00FCFF" stroke-width="0.8202" stroke-miterlimit="10" stroke-linecap="round" stroke-linejoin="round"/>
<path d="M140.314 61.752L121.303 64.597" stroke="#00FCFF" stroke-width="0.8202" stroke-miterlimit="10" stroke-linecap="round" stroke-linejoin="round"/>
<path d="M137.238 42.598L140.526 42.106" stroke="#E1F0FF" stroke-width="0.7392" stroke-miterlimit="10" stroke-linecap="round" stroke-linejoin="round"/>
<path d="M134.134 46.8139L140.526 45.8569" stroke="#E1F0FF" stroke-width="0.8202" stroke-miterlimit="10" stroke-linecap="round" stroke-linejoin="round"/>
<path d="M140.526 49.968L121.515 52.813" stroke="#E1F0FF" stroke-width="0.8202" stroke-miterlimit="10" stroke-linecap="round" stroke-linejoin="round"/>
<path d="M117.734 65.131L112.5 65.914" stroke="#00FCFF" stroke-width="0.8321" stroke-miterlimit="10" stroke-linecap="round" stroke-linejoin="round"/>
<path d="M108.342 66.5359L103.108 67.3189" stroke="#00FCFF" stroke-width="0.8321" stroke-miterlimit="10" stroke-linecap="round" stroke-linejoin="round"/>
<path d="M98.9501 67.9409L93.7151 68.7249" stroke="#00FCFF" stroke-width="0.8321" stroke-miterlimit="10" stroke-linecap="round" stroke-linejoin="round"/>
<path d="M89.5581 69.3469L84.3231 70.1299" stroke="#00FCFF" stroke-width="0.8321" stroke-miterlimit="10" stroke-linecap="round" stroke-linejoin="round"/>
<path d="M140.314 66.7499L82.6511 75.3779" stroke="#FF4F92" stroke-width="0.7392" stroke-miterlimit="10" stroke-linecap="round" stroke-linejoin="round"/>
<path d="M78.2761 71.035L76.3881 71.318" stroke="#00FCFF" stroke-width="0.8321" stroke-miterlimit="10" stroke-linecap="round" stroke-linejoin="round"/>
<path d="M78.2761 76.033L76.3881 76.315" stroke="#00FCFF" stroke-width="0.8321" stroke-miterlimit="10" stroke-linecap="round" stroke-linejoin="round"/>
<path d="M78.2761 81.03L76.3881 81.313" stroke="#00FCFF" stroke-width="0.8321" stroke-miterlimit="10" stroke-linecap="round" stroke-linejoin="round"/>
<path d="M78.2761 86.028L76.3881 86.311" stroke="#00FCFF" stroke-width="0.8321" stroke-miterlimit="10" stroke-linecap="round" stroke-linejoin="round"/>
<path d="M84.1301 80.154L106.84 76.756" stroke="#FF4F92" stroke-width="0.965" stroke-miterlimit="10" stroke-linecap="round" stroke-linejoin="round"/>
<path d="M84.1301 85.275L114.255 80.767" stroke="#FF4F92" stroke-width="0.965" stroke-miterlimit="10" stroke-linecap="round" stroke-linejoin="round"/>
<path d="M109.234 76.3979L140.314 71.7469" stroke="#FF8B00" stroke-width="0.8321" stroke-miterlimit="10" stroke-linecap="round" stroke-linejoin="round"/>
<path d="M116.415 80.4439L140.314 76.8669" stroke="#FF8B00" stroke-width="0.8321" stroke-miterlimit="10" stroke-linecap="round" stroke-linejoin="round"/>
<path d="M131.438 104.048C130.156 104.527 128.834 104.897 127.49 105.153C125.466 105.539 123.411 104.594 121.351 104.627C118.844 104.667 116.48 105.928 114.629 107.621C112.779 109.313 111.368 111.421 109.976 113.507C112.023 114.281 114.347 114.298 116.406 113.554C117.949 112.996 119.351 112.028 120.963 111.721C122.291 111.468 123.667 111.684 125.006 111.499C126.783 111.254 128.378 110.328 129.993 109.547C131.608 108.766 133.4 108.104 135.162 108.439C134.998 107.12 135.553 105.676 134.926 104.503C134.311 103.352 132.661 103.591 131.438 104.048Z" fill="#F68C77"/>
<path d="M163.36 208.839C162.859 211.943 162.711 215.105 162.922 218.243C163.052 220.18 163.313 222.166 162.777 224.032C160.295 223.584 157.836 223.076 155.442 222.282C155.344 222.25 155.256 222.087 155.359 222.084C156.327 220.438 156.739 218.627 156.72 216.717C156.701 214.807 156.339 212.92 155.978 211.044C155.691 209.554 155.404 208.064 155.117 206.574C157.858 206.346 160.621 206.375 163.357 206.659C163.45 207.139 163.438 208.356 163.36 208.839Z" fill="#F18875"/>
<path d="M141.112 228.638C143.793 229.427 146.641 229.359 149.435 229.285C150.794 229.249 152.223 229.193 153.384 228.485C153.831 228.213 154.242 227.842 154.756 227.744C155.648 227.574 156.441 228.261 157.239 228.695C158.808 229.547 160.698 229.458 162.48 229.347C162.768 229.329 163.082 229.3 163.288 229.098C163.462 228.927 163.517 228.672 163.561 228.432C163.773 227.275 163.855 224.684 163.937 223.51C164.001 222.586 163.895 221.438 163.044 221.069C162.701 220.92 161.815 222.219 159.033 221.763C158.577 221.688 158.169 221.338 157.977 220.917C157.797 220.522 157.871 220.047 157.693 219.65C157.322 218.82 156.169 218.8 155.266 218.911C154.825 220.707 152.918 221.603 151.183 222.243C148.469 223.244 145.72 224.254 142.843 224.554C142.23 224.618 141.573 224.664 141.087 225.044C140.267 225.685 140.321 226.92 140.454 227.953C140.485 228.206 140.869 228.567 141.112 228.638Z" fill="#1A1D3E"/>
<path d="M217.344 124.118C216.205 126.712 215.005 129.28 213.745 131.818C201.999 134.978 190.353 136.956 178.254 138.217C170.871 138.986 165.554 139.727 158.707 142.594C157.922 142.923 157.13 143.296 156.547 143.916C155.852 144.655 155.528 145.662 155.28 146.646C153.677 153.009 152.151 159.4 151.825 165.953C151.655 169.371 151.195 172.768 150.882 176.176C149.891 186.945 150.361 197.789 150.831 208.594C156.445 209.937 162.619 209.378 168.277 208.233C168.438 206.046 168.175 203.289 168.969 201.09C169.763 198.891 170.25 188.424 169.523 185.458C168.025 179.346 169.71 169.345 171.865 163.433C178.054 164.575 185.839 162.868 192.047 161.835C203.166 159.984 211.625 162.883 222.862 161.984C230.428 161.379 238.135 160.52 245.03 157.347C246.538 156.653 248.085 155.764 248.824 154.279C249.301 153.321 249.384 152.221 249.44 151.152C249.885 142.738 249.194 134.265 247.39 126.035C247.258 125.432 247.099 124.794 246.651 124.37C246.202 123.946 245.554 123.824 244.945 123.725C240.829 123.056 236.685 122.568 232.526 122.262C227.869 121.92 223.02 121.838 218.729 123.681C218.884 124.808 217.344 124.118 217.344 124.118Z" fill="#1C1E3B"/>
<path d="M171.31 161.746C170.611 160.821 169.833 159.99 168.93 159.261C168.034 158.537 167.073 157.887 165.962 157.552C165.685 157.469 165.581 157.833 165.78 157.984C166.643 158.64 167.568 159.215 168.406 159.905C169.243 160.594 170.031 161.364 170.733 162.191C170.999 162.505 171.563 162.08 171.31 161.746Z" fill="#1C1E3B"/>
<path d="M172.84 162.529C172.507 161.2 172.209 159.848 171.718 158.566C171.639 158.36 171.261 158.363 171.295 158.623C171.477 160.006 171.856 161.356 172.201 162.705C172.307 163.118 172.943 162.943 172.84 162.529Z" fill="#1C1E3B"/>
<path d="M211.483 49.915C212.49 51.767 214.602 52.958 216.707 52.863C217.706 52.818 218.961 52.621 219.479 53.477C219.69 53.825 219.697 54.254 219.709 54.66C219.756 56.265 219.979 57.864 220.373 59.42C220.44 59.684 220.517 59.958 220.702 60.157C220.943 60.417 221.315 60.499 221.664 60.56C225.419 61.219 229.331 60.968 232.972 59.833C232.457 57.344 233.008 54.777 233.189 52.241C233.801 43.648 229.699 34.946 222.905 29.708C220.535 27.881 216.371 24.823 213.472 27.189C210.823 29.351 210.288 34.16 208.962 37.125C208.49 38.179 207.245 39.633 207.604 40.817C207.851 41.631 209.152 42.402 209.582 43.245C210.642 45.325 210.357 47.845 211.483 49.915Z" fill="#F68C77"/>
<path d="M215.935 31.189C213.352 31.665 210.488 31.82 208.297 30.372C206.249 29.018 205.208 26.305 205.825 23.928C206.442 21.552 208.671 19.687 211.118 19.499C212.194 19.417 213.287 19.628 214.351 19.444C216.168 19.131 217.587 17.741 219.257 16.96C222.103 15.631 225.752 16.284 227.96 18.518C231.237 17.803 234.674 19.108 237.363 21.113C239.007 22.338 240.536 23.823 241.34 25.708C242.98 29.554 241.262 33.929 239.561 37.748C238.024 41.197 236.487 44.646 234.95 48.095C234.396 49.339 233.796 50.641 232.694 51.441C231.081 52.613 228.878 52.392 226.909 52.077C224.897 51.755 222.628 51.208 221.649 49.421C220.441 47.216 221.874 44.323 220.884 42.011C220.166 40.334 218.378 39.42 217.151 38.07C215.456 36.209 215.077 33.558 215.935 31.189Z" fill="black"/>
<path d="M133.628 216.92C133.095 220.222 132.938 223.584 133.162 226.921C133.3 228.981 133.577 231.093 133.008 233.077C130.369 232.6 127.753 232.06 125.207 231.216C125.103 231.182 125.01 231.009 125.119 231.005C126.148 229.254 126.586 227.328 126.566 225.298C126.546 223.267 126.161 221.259 125.777 219.265C125.472 217.68 125.167 216.096 124.862 214.511C127.777 214.269 130.716 214.299 133.625 214.602C133.724 215.112 133.711 216.407 133.628 216.92Z" fill="#F18875"/>
<path d="M109.968 237.977C112.819 238.816 115.848 238.744 118.819 238.665C120.264 238.627 121.784 238.567 123.018 237.814C123.493 237.524 123.93 237.13 124.477 237.026C125.425 236.845 126.269 237.576 127.118 238.037C128.786 238.943 130.797 238.849 132.691 238.73C132.997 238.711 133.331 238.68 133.55 238.465C133.735 238.283 133.794 238.012 133.84 237.757C134.065 236.526 134.153 233.771 134.24 232.522C134.308 231.539 134.195 230.318 133.291 229.926C132.926 229.768 131.984 231.149 129.026 230.664C128.541 230.585 128.107 230.212 127.903 229.765C127.711 229.345 127.79 228.84 127.601 228.418C127.206 227.535 125.98 227.514 125.02 227.633C124.55 229.543 122.523 230.496 120.678 231.176C117.792 232.241 114.868 233.314 111.808 233.634C111.156 233.702 110.457 233.751 109.941 234.155C109.069 234.837 109.127 236.15 109.267 237.248C109.301 237.517 109.709 237.901 109.968 237.977Z" fill="#1A1D3E"/>
<path d="M191.04 126.821C189.828 129.58 188.552 132.31 187.213 135.009C174.721 138.37 162.335 140.473 149.469 141.814C141.617 142.632 135.963 143.42 128.681 146.469C127.846 146.819 127.004 147.216 126.383 147.875C125.643 148.661 125.299 149.732 125.036 150.778C123.331 157.545 121.709 164.341 121.362 171.31C121.181 174.945 120.693 178.557 120.359 182.182C119.306 193.635 119.804 205.168 120.304 216.658C126.274 218.087 132.841 217.492 138.858 216.274C139.029 213.948 138.75 211.016 139.594 208.677C140.438 206.338 140.957 195.207 140.183 192.052C138.59 185.552 140.381 174.916 142.674 168.628C149.256 169.842 157.535 168.027 164.137 166.928C175.962 164.959 184.958 168.042 196.908 167.087C204.954 166.444 213.15 165.53 220.483 162.156C222.086 161.418 223.732 160.473 224.518 158.893C225.025 157.874 225.113 156.704 225.174 155.567C225.648 146.619 224.912 137.608 222.994 128.856C222.854 128.215 222.685 127.536 222.208 127.085C221.73 126.634 221.042 126.505 220.393 126.399C216.016 125.688 211.608 125.169 207.186 124.844C202.233 124.48 197.076 124.393 192.514 126.353C192.677 127.555 191.04 126.821 191.04 126.821Z" fill="#1C1E3B"/>
<path d="M142.083 166.837C141.34 165.853 140.513 164.97 139.552 164.194C138.599 163.424 137.577 162.733 136.395 162.377C136.101 162.288 135.99 162.675 136.201 162.836C137.118 163.534 138.102 164.145 138.994 164.879C139.885 165.612 140.722 166.431 141.468 167.311C141.753 167.645 142.352 167.193 142.083 166.837Z" fill="#1C1E3B"/>
<path d="M143.71 167.671C143.356 166.257 143.039 164.82 142.517 163.457C142.433 163.238 142.031 163.241 142.067 163.518C142.26 164.988 142.664 166.424 143.031 167.859C143.143 168.296 143.82 168.111 143.71 167.671Z" fill="#1C1E3B"/>
<path d="M237.089 60.146C235.86 59.484 235.267 57.829 233.907 57.512C233.363 57.385 232.796 57.507 232.25 57.626C228.291 58.491 224.01 59.203 220.304 57.563C219.918 57.392 219.465 57.197 219.095 57.402C218.873 57.525 218.746 57.764 218.631 57.99C218.246 58.744 217.861 59.498 217.476 60.252C211.943 60.179 206.409 60.649 201.359 62.91C198.931 63.997 196.757 65.577 194.682 67.241C186.293 73.967 179.251 82.192 171.536 89.682C169.975 91.198 168.33 92.72 166.298 93.499C155.17 97.764 144.377 100.277 132.564 101.857C131.862 101.951 131.081 102.085 130.66 102.654C130.272 103.178 130.323 103.895 130.391 104.543C130.525 105.815 130.659 107.087 130.792 108.359C130.919 109.564 131.517 111.088 132.622 111.585C133.727 112.081 134.994 112.008 136.202 111.919C147.832 111.064 158.449 109.59 169.964 107.745C173.776 107.134 177.529 105.575 181.173 104.301C187.084 102.234 192.314 98.63 197.465 95.068C197.917 98.411 197.807 101.727 196.655 104.898C194.658 110.399 190.347 115.15 189.912 120.986C189.757 123.062 190.115 125.14 190.562 127.173C203.128 130.842 216.89 129.904 229.946 128.955C230.846 128.89 231.777 128.816 232.573 128.39C233.543 127.871 234.18 126.903 234.732 125.951C236.554 122.813 237.924 119.412 238.785 115.886C240.171 110.213 240.345 103.992 243.694 99.209C246.083 95.797 245.282 97.143 247.346 93.525C250.39 88.19 250.349 74.783 247.577 69.303C246.097 66.378 240.367 60.125 237.089 60.146Z" fill="#F7EBE4"/>
<path d="M235.335 61.335C232.639 61.95 229.928 62.649 227.159 62.825C225.878 62.906 224.582 62.873 223.314 62.662C222.034 62.449 220.91 61.953 219.688 61.564C219.419 61.479 219.302 61.847 219.507 61.993C220.531 62.722 221.931 63.044 223.151 63.256C224.437 63.479 225.748 63.541 227.051 63.475C229.926 63.328 232.708 62.573 235.449 61.745C235.71 61.665 235.601 61.274 235.335 61.335Z" fill="#C9C4C0"/>
<path d="M211.28 61.341C213.675 64.355 214.5 68.318 213.815 72.077C213.743 72.474 214.329 72.65 214.429 72.246C215.411 68.3 214.269 64.031 211.707 60.914C211.458 60.613 211.042 61.042 211.28 61.341Z" fill="#C9C4C0"/>
<path d="M212.796 74.422C212.009 76.4 211.209 78.374 210.123 80.211C209.154 81.849 208.024 83.396 206.784 84.838C205.559 86.262 204.231 87.597 202.86 88.881C201.464 90.188 199.913 91.37 198.642 92.799C198.414 93.055 198.712 93.512 199.028 93.299C200.638 92.217 202.05 90.807 203.452 89.473C204.89 88.105 206.276 86.679 207.541 85.148C208.774 83.655 209.893 82.074 210.793 80.357C211.77 78.493 212.505 76.513 213.227 74.541C213.327 74.268 212.901 74.16 212.796 74.422Z" fill="#C9C4C0"/>
<path d="M168.105 93.47C168.51 93.953 168.915 94.435 169.321 94.918C169.517 95.151 169.704 95.396 169.917 95.613C170.144 95.843 170.371 96.074 170.598 96.304C170.819 96.528 171.236 96.229 171.045 95.959C170.865 95.704 170.685 95.449 170.505 95.195C170.311 94.92 170.086 94.667 169.87 94.409C169.461 93.917 169.051 93.425 168.642 92.933C168.511 92.775 168.24 92.797 168.105 92.933C167.95 93.088 167.973 93.312 168.105 93.47Z" fill="#C9C4C0"/>
<path d="M167.427 93.916C167.639 95.221 167.687 96.545 167.628 97.865C167.608 98.299 168.267 98.292 168.298 97.865C168.399 96.485 168.304 95.101 168.073 93.738C168.043 93.559 167.822 93.459 167.661 93.504C167.471 93.556 167.398 93.737 167.427 93.916Z" fill="#C9C4C0"/>
<path d="M184.871 165.206C181.543 168 179.053 171.681 177.104 175.534C175.069 179.555 173.483 183.806 172.203 188.122C170.818 192.794 169.962 197.602 169.048 202.383C167.908 208.346 166.905 214.337 165.96 220.333C164.895 227.085 164.004 233.857 163.22 240.647C163.079 241.869 165.217 242.17 165.384 240.94C166.996 229.075 168.785 217.221 170.877 205.43C171.755 200.483 172.622 195.54 173.667 190.624C174.586 186.301 175.73 181.949 177.479 177.88C179.388 173.438 181.907 169.129 185.56 165.894C186.034 165.476 185.346 164.807 184.871 165.206Z" fill="black"/>
<path d="M207 166.897C200.716 174.055 198.296 183.656 196.645 192.812C195.672 198.208 195.026 203.69 194.387 209.134C193.717 214.845 193.114 220.563 192.578 226.287C191.969 232.792 191.529 239.306 191.174 245.829C191.139 246.471 191.745 247.018 192.363 247.018C193.047 247.018 193.503 246.472 193.552 245.829C194.409 234.49 195.403 223.149 196.64 211.845C197.243 206.336 197.863 200.829 198.556 195.331C199.138 190.714 199.624 186.074 200.863 181.572C202.247 176.544 204.393 171.677 207.744 167.64C208.169 167.126 207.451 166.384 207 166.897Z" fill="black"/>
<path d="M247.428 165.974C254.05 172.734 256.714 181.983 258.529 191.019C260.726 201.958 262.961 212.884 264.864 223.879C265.965 230.24 267.062 236.603 268.076 242.978C268.177 243.612 268.968 243.965 269.538 243.808C270.224 243.62 270.456 242.985 270.368 242.346C268.785 230.84 266.811 219.41 264.544 208.02C263.982 205.196 263.384 202.38 262.771 199.567C262.199 196.941 261.668 194.295 260.995 191.692C259.801 187.077 258.419 182.527 256.584 178.124C254.593 173.345 251.917 168.847 248.172 165.231C247.685 164.761 246.954 165.49 247.428 165.974Z" fill="black"/>
<path d="M174.484 160.088C176.968 157.731 180.33 156.563 183.629 155.648C186.794 154.77 190.006 154.062 193.247 153.529C194.8 153.273 196.415 153.038 197.736 152.182C199.82 150.831 200.706 148.268 201.372 145.876C203.92 136.734 205.302 127.311 207.476 118.073C209.65 108.835 212.694 99.63 218.168 91.878C223.642 84.126 231.834 77.919 241.22 76.521C244.032 76.102 246.962 76.125 249.652 77.046C256.987 79.556 260.561 87.766 262.397 95.298C266.548 112.328 266.157 130.093 265.742 147.616C265.626 152.517 265.343 157.864 262.094 161.535C258.081 166.068 251.215 166.29 245.162 166.279C230.233 166.253 215.31 166.874 200.409 167.742C193.028 168.172 185.65 168.66 178.274 169.169C174.869 169.404 172.007 170.76 171.477 166.773C171.162 164.406 172.853 161.637 174.484 160.088Z" fill="black"/>
<path d="M239.48 77.361C233.817 79.733 229.2 83.684 225.642 88.659C221.614 94.291 218.981 100.916 216.905 107.48C214.573 114.855 213.157 122.497 212.653 130.214C212.139 138.079 212.334 146.05 210.179 153.705C209.483 156.179 208.553 158.629 207.01 160.708C205.51 162.729 203.45 164.211 201.205 165.308C200.533 165.636 199.845 165.929 199.148 166.2C198.535 166.438 198.804 167.438 199.422 167.195C201.885 166.228 204.263 164.985 206.187 163.14C207.932 161.467 209.163 159.381 210.049 157.147C212.76 150.308 212.934 142.75 213.235 135.502C213.399 131.561 213.617 127.628 214.139 123.716C214.659 119.818 215.424 115.949 216.418 112.144C218.248 105.134 220.744 98.049 224.5 91.822C227.711 86.498 232.091 81.927 237.578 78.934C238.272 78.556 238.98 78.207 239.699 77.88C239.988 77.748 239.777 77.236 239.48 77.361Z" fill="#555555"/>
<path d="M193.321 17.048L164.695 18.398C161.631 18.543 159.03 16.176 158.886 13.112L158.607 7.20298C158.462 4.13898 160.829 1.53798 163.893 1.39398L192.519 0.0439804C195.583 -0.10102 198.183 2.26598 198.328 5.32998L198.607 11.239C198.751 14.302 196.385 16.903 193.321 17.048Z" fill="#F5C282"/>
<path d="M174.905 9.59998C174.919 9.89998 174.687 10.156 174.386 10.17C174.086 10.184 173.831 9.95198 173.816 9.65098C173.802 9.35098 174.034 9.09599 174.334 9.08099C174.636 9.06699 174.891 9.29898 174.905 9.59998Z" fill="white"/>
<path d="M179.161 9.39898C179.175 9.69898 178.943 9.95498 178.642 9.96898C178.342 9.98298 178.086 9.75097 178.072 9.45097C178.058 9.15097 178.29 8.89497 178.59 8.88097C178.892 8.86697 179.147 9.09898 179.161 9.39898Z" fill="white"/>
<path d="M183.417 9.19898C183.431 9.49898 183.199 9.75498 182.898 9.76898C182.598 9.78298 182.342 9.55098 182.328 9.24998C182.314 8.94998 182.546 8.69398 182.847 8.67998C183.147 8.66598 183.403 8.89798 183.417 9.19898Z" fill="white"/>
<path d="M189.853 20.726C191.488 20.726 192.813 19.4007 192.813 17.766C192.813 16.1312 191.488 14.806 189.853 14.806C188.218 14.806 186.893 16.1312 186.893 17.766C186.893 19.4007 188.218 20.726 189.853 20.726Z" fill="#F5C282"/>
<path d="M195.92 22.237C195.92 23.352 195.016 24.255 193.902 24.255C192.787 24.255 191.884 23.351 191.884 22.237C191.884 21.122 192.788 20.219 193.902 20.219C195.016 20.219 195.92 21.123 195.92 22.237Z" fill="#F5C282"/>
<path d="M198.479 25.426C198.479 26.006 198.008 26.477 197.428 26.477C196.848 26.477 196.377 26.006 196.377 25.426C196.377 24.845 196.848 24.375 197.428 24.375C198.009 24.375 198.479 24.845 198.479 25.426Z" fill="#F5C282"/>
</g>
<defs>
<clipPath id="clip0_7_178">
<rect width="271" height="248" fill="white"/>
</clipPath>
</defs>
</svg>
