<svg width="75" height="103" viewBox="0 0 75 103" fill="none" xmlns="http://www.w3.org/2000/svg">
<path d="M37.5 101C58.2107 101 75 84.2107 75 63.5C75 42.7893 58.2107 26 37.5 26C16.7893 26 0 42.7893 0 63.5C0 84.2107 16.7893 101 37.5 101Z" fill="#FEFEFE"/>
<path d="M3 1.37595H4.66263L4.73282 3.10051C4.98072 2.4334 5.33948 1.91668 5.8114 1.55032C6.2834 1.18397 6.82552 1 7.43894 1C8.71226 1 9.56108 1.7663 9.98557 3.30049C10.2572 2.56779 10.6432 1.99987 11.1445 1.59992C11.6459 1.19998 12.2322 1 12.9045 1C13.8835 1 14.643 1.42875 15.1862 2.28782C15.7283 3.14691 16 4.35793 16 5.92578V13H14.214V6.22488C14.214 5.24107 14.0691 4.4955 13.7805 3.98683C13.4919 3.47806 13.0754 3.2237 12.5332 3.2237C11.8847 3.2237 11.3686 3.56605 10.9861 4.24915C10.6024 4.93229 10.4111 5.84895 10.4111 6.99914V12.9983H8.62511V6.22331C8.62511 4.22351 8.05355 3.2237 6.90932 3.2237C6.2608 3.2237 5.74463 3.56605 5.36208 4.24915C4.97841 4.93229 4.78718 5.84895 4.78718 6.99914V12.9983H3.00119V1.37435L3 1.37595Z" fill="#7A00C6"/>
<path d="M17 7.02492C17 5.85875 17.1941 4.82168 17.5835 3.91526C17.9728 3.00881 18.5064 2.29516 19.1869 1.7774C19.8673 1.25965 20.6473 1 21.5292 1C22.4112 1 23.2036 1.26276 23.8716 1.78984C24.5383 2.31692 25.0608 3.05391 25.4365 4.00076C25.8121 4.94763 26 6.04536 26 7.29233V7.75412H18.963C19.0414 8.74297 19.3424 9.52038 19.8673 10.0864C20.3923 10.6539 21.0889 10.9368 21.9572 10.9368C23.0071 10.9368 23.9462 10.4843 24.7759 9.57636L25.7475 11.1063C25.2809 11.7065 24.7037 12.1713 24.0171 12.5025C23.3305 12.8337 22.604 13 21.8402 13C20.8812 13 20.039 12.7481 19.3138 12.2475C18.5873 11.7453 18.0213 11.0456 17.6133 10.1454C17.2053 9.24674 17.0013 8.20651 17.0013 7.02339L17 7.02492ZM23.2882 3.89044C22.8541 3.37264 22.2868 3.11299 21.5877 3.11299C20.8886 3.11299 20.2654 3.37575 19.7989 3.9028C19.3324 4.42997 19.0538 5.13894 18.963 6.0283H24.0557C23.9773 5.12178 23.7223 4.40811 23.2882 3.89044Z" fill="#7A00C6"/>
<path d="M27.0013 8.09008V1.00161H29.1299V7.73898C29.1299 8.72488 29.3094 9.47984 29.6668 10.0056C30.0256 10.5315 30.5342 10.7943 31.1952 10.7943C32.0099 10.7943 32.6601 10.4305 33.1443 9.70426C33.6286 8.97815 33.8714 8.0131 33.8714 6.8109V1H36V12.6473H34.04L33.9564 10.8696C33.6191 11.5381 33.1592 12.0591 32.5751 12.4358C31.9924 12.8109 31.3354 13 30.6043 13C29.4793 13 28.5985 12.5704 27.9591 11.7097C27.3196 10.8504 27 9.64339 27 8.09008H27.0013Z" fill="#7A00C6"/>
<path d="M45.0503 13.3215V11.8426C44.4201 13.0194 43.4547 13.6069 42.1554 13.6069C41.3285 13.6069 40.6026 13.3564 39.9788 12.8551C39.3549 12.3538 38.8696 11.6532 38.5218 10.7536C38.174 9.85396 38 8.8082 38 7.61478C38 6.26521 38.2231 5.09829 38.6692 4.11228C39.1154 3.12634 39.7431 2.36113 40.5497 1.81668C41.3575 1.27223 42.3053 1 43.3955 1C43.9866 1 44.6029 1.07304 45.2469 1.22077C45.8897 1.3685 46.4745 1.57931 47 1.85651V13.2169C47 15.0677 46.593 16.4935 45.7788 17.4961C44.9646 18.4987 43.7963 19 42.2738 19C40.7514 19 39.5099 18.4904 38.5117 17.4696L39.3788 15.5507C40.2585 16.3807 41.2101 16.7957 42.2348 16.7957C44.1126 16.7957 45.0516 15.6371 45.0516 13.3198L45.0503 13.3215ZM45.0112 7.95174V3.56788C44.4466 3.37699 43.9211 3.28238 43.4358 3.28238C42.3595 3.28238 41.5226 3.65917 40.9252 4.41107C40.3278 5.16306 40.0291 6.20545 40.0291 7.5367C40.0291 8.69533 40.2586 9.62485 40.7186 10.3254C41.1786 11.0258 41.7886 11.376 42.5498 11.376C43.311 11.376 43.8794 11.0557 44.3319 10.4166C44.7843 9.77763 45.0112 8.95596 45.0112 7.95174Z" fill="#7A00C6"/>
<path d="M48.0013 8.09008V1.00161H50.1299V7.73898C50.1299 8.72488 50.3094 9.47984 50.6668 10.0056C51.0256 10.5315 51.5342 10.7943 52.1952 10.7943C53.0099 10.7943 53.6601 10.4305 54.1443 9.70426C54.6286 8.97815 54.8714 8.0131 54.8714 6.8109V1H57V12.6473H55.04L54.9564 10.8696C54.6191 11.5381 54.1592 12.0591 53.5751 12.4358C52.9924 12.8109 52.3354 13 51.6043 13C50.4793 13 49.5985 12.5704 48.959 11.7097C48.3196 10.8504 48 9.64339 48 8.09008H48.0013Z" fill="#7A00C6"/>
<path d="M59 1.20293H60.5719L60.6554 3.1315C60.9232 2.45455 61.2704 1.9302 61.7007 1.55845C62.1302 1.1867 62.6061 1 63.1305 1C63.4201 1 63.7104 1.06819 64 1.20293L63.6823 3.53735C63.4482 3.41884 63.2029 3.36039 62.9463 3.36039C62.3003 3.36039 61.7618 3.68185 61.333 4.32473C60.9035 4.96749 60.6884 5.81332 60.6884 6.86199V13H59V1.20455V1.20293Z" fill="#7A00C6"/>
<path d="M65.0016 8.09008V1.00161H66.8937V7.73898C66.8937 8.72488 67.0528 9.47984 67.371 10.0056C67.6892 10.5315 68.1414 10.7943 68.729 10.7943C69.4537 10.7943 70.0311 10.4305 70.462 9.70426C70.8921 8.97815 71.1079 8.0131 71.1079 6.8109V1H73V12.6473H71.2576L71.1835 10.8696C70.8842 11.5381 70.4754 12.0591 69.9555 12.4358C69.438 12.8109 68.8543 13 68.2036 13C67.204 13 66.421 12.5704 65.8523 11.7097C65.2844 10.8504 65 9.64339 65 8.09008H65.0016Z" fill="#7A00C6"/>
<path d="M37.4804 62.0588C38.2679 62.0588 39.0189 62.2486 39.714 62.5987C43.289 58.9201 46.6673 54.6844 48.6154 50.5205C47.4506 49.0566 45.169 47.3775 44.3496 46.7025C38.3602 54.3088 26.7472 65.8092 15.6484 75.1326C16.2991 77.5837 17.46 79.3514 19.5006 80.7521C19.5006 80.7521 23.7988 79.5032 26.7432 77.4825C28.2134 76.4701 29.9407 75.1705 31.6399 73.4284C31.3426 72.4705 31.1779 71.4243 31.1779 70.3317C31.1779 65.7712 34.0059 62.0629 37.4804 62.0629V62.0588Z" fill="#7A00C6"/>
<path d="M42.022 45.6885C41.0637 45.2078 40.0316 45 38.9525 45C35.3808 45 31.3258 47.306 28.0421 49.7423C24.3378 52.4883 15.6632 58.9254 14.2064 65.4277C13.7585 67.4201 14.0428 69.7138 15.0283 72.2397C24.8169 63.3989 38.0177 50.9034 42.022 45.6885Z" fill="#7A00C6"/>
<path d="M62.4105 65.5874C61.5481 62.0903 58.3195 58.621 54.9443 55.7404C53.8178 54.7775 51.724 53.5124 51.724 53.5124C51.724 53.5124 50.4971 55.5852 49.3164 57.1568C47.4655 59.6195 46.967 60.2998 46.967 60.2998C46.967 60.2998 49.3874 62.1261 49.8523 62.5278C53.9644 66.0728 58.4703 69.737 61.5228 72.2397C62.5822 69.7728 62.8837 67.5328 62.4064 65.5874H62.4105Z" fill="#7A00C6"/>
<path d="M42.022 64.8126C43.1883 66.2106 43.8158 68.3162 43.8158 70.4091C43.8158 71.5392 43.6376 72.615 43.3178 73.5942C44.9944 75.2727 46.6912 76.5286 48.1448 77.5081C51.1132 79.513 55.4461 80.7521 55.4461 80.7521C57.5033 79.3623 58.6736 77.6084 59.3297 75.1765C56.4464 72.7948 53.0449 69.7142 49.8133 66.7883C48.1166 65.252 44.5206 62.0248 44.5206 62.0248C44.5206 62.0248 44.2774 62.4015 43.6012 63.1426C43.1518 63.6365 42.6213 64.1848 42.026 64.8167L42.022 64.8126Z" fill="#7A00C6"/>
<path d="M40.5399 66.8281C39.8651 65.4791 38.7377 64.5785 37.4889 64.5785C37.4388 64.5785 37.3926 64.5785 37.3466 64.5824C35.398 64.6905 33.7803 66.984 33.7803 69.6859C33.7803 69.794 33.7803 69.9021 33.7887 70.0102C33.9144 72.6321 35.5571 74.7934 37.4889 74.7934C39.421 74.7934 40.9757 72.7481 41.1769 70.2145C41.1893 70.0383 41.1979 69.8621 41.1979 69.6859C41.1979 68.6373 40.9548 67.6527 40.5399 66.8281Z" fill="#7A00C6"/>
</svg>
