<svg width="269" height="236" viewBox="0 0 269 236" fill="none" xmlns="http://www.w3.org/2000/svg">
<g clip-path="url(#clip0_7_105)">
<path d="M65.6161 17.6309C48.2681 20.1089 32.509 31.7939 25.097 47.6729C18.146 62.5649 18.482 79.6419 17.188 96.0249C16.108 109.689 13.801 123.256 10.304 136.509C7.51904 147.062 3.97705 157.441 2.12905 168.197C0.281049 178.953 0.217012 190.314 4.25301 200.454C9.11601 212.67 20.039 222.297 32.768 225.587C42.284 228.046 52.291 227.101 62.114 226.761C102.74 225.356 144.863 234.429 183.238 221.019C187.019 219.698 190.913 218.028 193.331 214.835C195.546 211.911 196.209 208.114 196.522 204.459C198.197 184.944 191.779 165.445 182.097 148.42C177.711 140.708 172.372 133.122 164.64 128.771C157.713 124.873 148.999 123.619 143.811 117.597C137.977 110.826 138.857 100.818 139.079 91.8829C139.548 72.9379 135.473 53.8959 127.292 36.8029C125.01 32.0349 122.318 27.2999 118.23 23.9499C113.827 20.3419 108.167 18.6449 102.567 17.6249C92.041 15.7089 81.136 15.9079 70.687 18.2059C68.883 17.6189 67.4921 17.3629 65.6161 17.6309Z" fill="#F8B75F"/>
<path d="M92.415 20.016C93.061 24.154 92.777 31.037 92.306 35.199C92.15 36.577 91.99 37.974 91.482 39.264C91.059 40.338 90.407 41.305 89.714 42.228C88.979 43.205 88.162 44.167 87.079 44.735C85.996 45.303 84.587 45.397 83.599 44.677C83.06 46.287 82.588 47.814 82.63 49.511C80.445 49.342 78.237 49.348 76.068 49.033C74.063 48.742 72.196 47.869 70.362 47.007C70.272 46.965 70.165 46.888 70.194 46.792C70.223 46.697 70.397 46.834 70.299 46.848C70.923 43.381 71.196 40.072 71.244 36.549C71.268 34.786 68.675 32.853 68.394 31.113C68.198 29.895 68.186 28.212 68.056 26.985C67.757 24.175 71.166 21.7129 72.915 19.4929C74.664 17.2729 77.131 15.68 79.79 14.723C82.781 13.646 86.238 13.38 89.052 14.86C91.865 16.34 93.623 17.076 92.415 20.016Z" fill="#E98B77"/>
<path d="M77.333 20.018C76.916 21.485 76.205 22.867 75.254 24.059C74.803 24.625 74.296 25.151 73.913 25.765C73.529 26.379 73.272 27.109 73.388 27.824C72.717 27.477 71.998 27.074 71.243 27.038C70.488 27.002 69.688 27.261 69.219 27.853C68.773 28.415 68.685 29.183 68.732 29.899C68.88 32.156 70.406 34.374 72.598 34.934C71.166 36.785 71.005 39.127 70.964 41.467C69.36 41.406 67.707 39.172 67.344 37.609C66.366 33.398 65.388 29.187 64.41 24.977C64.075 23.532 63.737 22.069 63.761 20.586C63.785 19.103 64.208 17.573 65.219 16.487C66.17 15.465 67.536 14.934 68.891 14.595C69.519 11.791 72.374 9.88496 75.121 9.04196C78.131 8.11796 81.49 7.74596 84.359 9.04296C85.816 9.70196 87.075 10.76 88.57 11.327C90.583 12.092 92.995 11.964 94.647 13.346C95.745 14.264 96.298 15.789 96.045 17.197C95.792 18.605 94.741 19.842 93.392 20.319C91.928 20.838 90.319 20.487 88.793 20.194C85.973 19.654 83.112 19.331 80.243 19.229C79.294 19.194 77.593 19.104 77.333 20.018Z" fill="black"/>
<path d="M153.333 214.359C153.333 214.359 153.333 218.975 153.87 221.122C154.407 223.269 147.966 226.704 147.966 226.704L142.277 222.195C142.277 222.195 142.921 217.579 142.706 214.359C142.491 211.138 153.333 214.359 153.333 214.359Z" fill="#E88A76"/>
<path d="M143.191 234.916C145.005 235.288 146.882 235.355 148.718 235.111C149.371 235.024 150.127 234.931 150.771 235.072C151.069 234.15 152.048 233.549 153.016 233.53C153.985 233.512 154.914 233.998 155.597 234.685C155.948 235.037 156.264 235.456 156.725 235.644C157.065 235.782 157.444 235.776 157.81 235.769C162.099 235.677 166.387 235.584 170.676 235.492C171.543 235.473 172.534 235.395 173.058 234.704C173.432 234.212 173.452 233.545 173.441 232.927C173.421 231.758 173.317 230.507 172.589 229.593C171.667 228.434 169.999 228.419 168.578 228.004C167.063 227.562 165.862 226.933 164.355 226.466C160.986 225.421 158.133 222.824 156.777 219.568C156.562 219.051 156.358 218.487 155.902 218.164C155.242 217.696 154.333 217.912 153.573 218.19C152.647 218.528 151.744 218.931 150.873 219.395C150.272 219.715 149.603 220.219 149.678 220.896C149.776 221.774 151.101 222.411 150.707 223.202C150.48 223.657 149.849 223.683 149.343 223.629C146.796 223.353 144.294 222.669 141.961 221.61C141.813 222.734 141.614 223.883 141.667 225.016C141.781 227.45 141.895 229.884 142.009 232.318C142.051 233.191 142.629 234.244 143.191 234.916Z" fill="#1A1D3E"/>
<path d="M155.911 214.792C154.615 216.033 152.751 216.452 150.972 216.681C146.298 217.282 141.491 216.976 136.966 215.661C133.758 209.7 135.135 202.461 135.195 195.692C135.23 191.789 134.795 187.898 134.353 184.02C133.681 178.129 132.856 172.473 132.1 166.664C131.834 164.622 130.215 163.022 128.168 162.798L97.3691 159.433C92.1531 158.863 86.8521 158.272 82.0121 156.245C77.1721 154.218 72.7701 150.515 71.1661 145.519C69.4621 140.209 71.1101 134.33 69.7991 128.91C77.5901 127.486 84.3281 125.946 92.1641 124.788C96.6111 124.13 101.194 123.522 105.557 124.604C108.917 125.438 111.949 127.229 114.925 128.997C125.316 135.17 135.716 141.348 145.692 148.173C147.162 149.178 148.687 150.274 149.428 151.893C150.123 153.412 150.019 155.155 150.123 156.823C150.409 161.425 153.35 177.334 153.29 180.848C153.153 188.91 153.863 196.986 155.403 204.901C155.969 207.815 156.367 211.856 155.911 214.792Z" fill="#3D4180"/>
<path d="M186.824 209.228C186.824 209.228 186.824 213.844 187.361 215.991C187.898 218.138 181.457 221.573 181.457 221.573L175.767 217.064C175.767 217.064 176.411 212.448 176.196 209.228C175.982 206.008 186.824 209.228 186.824 209.228Z" fill="#E88A76"/>
<path d="M176.681 229.786C178.495 230.158 180.372 230.225 182.208 229.981C182.861 229.894 183.617 229.801 184.261 229.942C184.559 229.02 185.537 228.419 186.506 228.4C187.475 228.382 188.404 228.868 189.087 229.555C189.438 229.907 189.754 230.326 190.215 230.514C190.555 230.652 190.934 230.646 191.3 230.638C195.589 230.546 199.877 230.454 204.166 230.361C205.033 230.342 206.024 230.264 206.548 229.573C206.922 229.081 206.942 228.413 206.931 227.796C206.911 226.627 206.807 225.376 206.079 224.461C205.157 223.302 203.489 223.287 202.068 222.872C200.554 222.43 199.352 221.801 197.845 221.333C194.476 220.288 191.624 217.691 190.267 214.435C190.052 213.918 189.848 213.354 189.392 213.031C188.732 212.563 187.823 212.779 187.063 213.057C186.137 213.395 185.234 213.798 184.364 214.262C183.763 214.582 183.094 215.086 183.169 215.763C183.267 216.641 184.592 217.278 184.198 218.069C183.971 218.524 183.34 218.55 182.834 218.496C180.287 218.22 177.785 217.536 175.452 216.477C175.304 217.601 175.105 218.75 175.158 219.883C175.272 222.317 175.386 224.751 175.5 227.185C175.542 228.06 176.12 229.114 176.681 229.786Z" fill="#1A1D3E"/>
<path d="M189.401 209.661C188.105 210.902 186.241 211.321 184.462 211.55C179.788 212.151 174.981 211.845 170.456 210.53C167.248 204.57 168.625 197.33 168.685 190.561C168.72 186.658 168.285 182.767 167.843 178.889C167.171 172.998 166.346 167.342 165.59 161.533C165.324 159.491 163.705 157.891 161.658 157.667L130.859 154.302C125.643 153.732 120.342 153.141 115.502 151.114C110.662 149.087 106.26 145.384 104.656 140.387C102.952 135.077 104.6 129.199 103.289 123.778C111.08 122.353 117.818 120.814 125.654 119.656C130.101 118.998 134.684 118.39 139.047 119.472C142.407 120.305 132.638 122.586 135.614 124.354C146.005 130.527 168.569 134.6 179.182 143.04C185.925 148.403 186.84 172.201 186.781 175.715C186.644 183.777 187.353 191.853 188.894 199.768C189.46 202.684 189.857 206.726 189.401 209.661Z" fill="#3D4180"/>
<path d="M154.544 29.217L146.162 74.216C145.453 78.025 148.326 81.562 152.2 81.648L228.516 83.338C231.524 83.405 234.157 81.329 234.795 78.389L244.978 31.458C245.829 27.535 242.833 23.83 238.818 23.843L160.701 24.084C157.682 24.094 155.097 26.249 154.544 29.217Z" stroke="#555555" stroke-width="1.3618" stroke-miterlimit="10"/>
<path d="M149.199 25.279L140.817 70.278C140.108 74.087 142.981 77.624 146.855 77.71L223.171 79.401C226.179 79.468 228.812 77.392 229.45 74.452L239.633 27.521C240.484 23.598 237.488 19.893 233.474 19.906L155.357 20.147C152.338 20.156 149.752 22.311 149.199 25.279Z" fill="black"/>
<path d="M160.325 28.024C161.231 27.911 162.141 27.842 163.053 27.821C163.981 27.8 164.898 27.841 165.819 27.703C166.349 27.624 166.258 26.854 165.819 26.718C164.925 26.442 163.982 26.438 163.053 26.459C162.141 26.48 161.23 26.549 160.325 26.662C159.96 26.707 159.644 26.943 159.644 27.343C159.644 27.675 159.957 28.069 160.325 28.024Z" fill="#34B77E"/>
<path d="M169.289 27.444C171.291 27.291 173.298 27.216 175.306 27.231C176.31 27.238 177.315 27.247 178.318 27.279C179.284 27.309 180.237 27.419 181.196 27.282C181.593 27.225 181.526 26.643 181.196 26.543C180.266 26.264 179.283 26.275 178.318 26.235C177.314 26.193 176.31 26.172 175.306 26.193C173.296 26.234 171.289 26.363 169.289 26.571C168.74 26.629 168.724 27.487 169.289 27.444Z" fill="#34B77E"/>
<path d="M187.003 27.119C189.06 27.091 191.117 27.118 193.174 27.168C194.203 27.193 195.231 27.23 196.259 27.28C197.257 27.328 198.233 27.431 199.215 27.204C199.642 27.106 199.575 26.533 199.215 26.404C198.263 26.064 197.26 26.079 196.259 26.054C195.231 26.028 194.202 26.014 193.174 26.013C191.116 26.01 189.058 26.088 187.003 26.204C186.419 26.237 186.409 27.127 187.003 27.119Z" fill="#34B77E"/>
<path d="M203.317 26.687C206.119 26.733 208.92 26.778 211.722 26.824C213.081 26.846 214.441 26.883 215.801 26.888C216.501 26.891 217.202 26.883 217.902 26.881C218.542 26.879 219.382 26.957 219.917 26.557C220.276 26.288 220.276 25.853 219.917 25.583C219.409 25.202 218.636 25.261 218.026 25.259C217.326 25.256 216.625 25.251 215.925 25.251C214.524 25.252 213.123 25.293 211.723 25.315C208.921 25.361 206.12 25.406 203.318 25.452C202.523 25.465 202.521 26.674 203.317 26.687Z" fill="#34B77E"/>
<path d="M154.935 37.087C157.698 37.174 160.463 37.195 163.227 37.143C164.588 37.117 165.949 37.057 167.309 36.984C168.661 36.911 170.089 36.94 171.369 36.461C171.711 36.333 171.793 35.773 171.369 35.681C170.075 35.402 168.744 35.581 167.432 35.642C166.031 35.707 164.629 35.749 163.227 35.791C160.464 35.875 157.699 35.886 154.935 35.831C154.126 35.815 154.128 37.061 154.935 37.087Z" fill="#00FCFF"/>
<path d="M175.188 36.271C175.284 36.271 175.284 36.122 175.188 36.122C175.092 36.121 175.091 36.271 175.188 36.271Z" fill="#00FCFF"/>
<path d="M174.906 36.887C175.384 36.885 175.862 36.882 176.34 36.88C176.62 36.878 176.905 36.894 177.182 36.85C177.286 36.833 177.396 36.821 177.498 36.794C177.64 36.756 177.771 36.666 177.894 36.589C178.189 36.406 178.189 35.984 177.894 35.801C177.77 35.724 177.639 35.634 177.498 35.596C177.396 35.569 177.287 35.557 177.182 35.54C176.905 35.495 176.62 35.511 176.34 35.51C175.862 35.508 175.384 35.505 174.906 35.503C174.544 35.501 174.198 35.822 174.214 36.194C174.231 36.569 174.519 36.89 174.906 36.887Z" fill="#00FCFF"/>
<path d="M180.264 36.439C189.617 36.644 198.97 36.535 208.324 36.45C209.159 36.442 209.161 35.141 208.324 35.152C198.972 35.271 189.615 35.282 180.264 35.077C179.387 35.058 179.387 36.42 180.264 36.439Z" fill="#00FCFF"/>
<path d="M156.613 44.576C157.722 44.623 158.809 44.593 159.916 44.533C161.045 44.472 162.177 44.487 163.262 44.139C163.817 43.961 163.919 43.031 163.262 42.908C162.689 42.801 162.149 42.752 161.568 42.793C160.996 42.833 160.425 42.874 159.853 42.914C158.704 42.995 157.577 43.111 156.441 43.301C156.127 43.354 155.933 43.724 155.976 44.013C156.025 44.338 156.283 44.562 156.613 44.576Z" fill="#00FCFF"/>
<path d="M155.199 50.06C156.009 49.955 156.824 49.895 157.64 49.885C158.503 49.875 159.297 49.842 160.139 49.686C160.37 49.643 160.537 49.386 160.537 49.163C160.537 48.911 160.365 48.723 160.139 48.64C158.516 48.042 156.665 48.308 154.998 48.576C154.628 48.635 154.412 49.069 154.457 49.405C154.502 49.737 154.826 50.108 155.199 50.06Z" fill="#FF4F92"/>
<path d="M163.654 50.193C164.051 50.19 164.449 50.198 164.845 50.183C165.081 50.174 165.323 50.118 165.556 50.076C165.655 50.058 165.747 50.024 165.841 49.988C166.001 49.925 166.097 49.842 166.205 49.718C166.364 49.535 166.365 49.3 166.205 49.116C166.097 48.992 166.003 48.909 165.841 48.846C165.748 48.81 165.655 48.776 165.556 48.758C165.325 48.716 165.079 48.656 164.845 48.651C164.448 48.642 164.051 48.644 163.654 48.641C163.248 48.637 162.859 49.001 162.877 49.418C162.897 49.835 163.219 50.197 163.654 50.193Z" fill="#FF4F92"/>
<path d="M169.51 50.25C170.372 50.041 171.089 49.953 172.001 49.958C172.873 49.963 173.751 50.002 174.621 49.953C175.128 49.924 175.342 49.258 174.884 48.982C174.038 48.471 172.987 48.246 172.001 48.233C171.009 48.221 170.011 48.34 169.046 48.567C168.601 48.671 168.295 49.204 168.437 49.64C168.586 50.102 169.035 50.365 169.51 50.25Z" fill="#FF4F92"/>
<path d="M179.972 49.419C182.628 49.536 185.281 49.643 187.939 49.702C189.267 49.732 190.595 49.761 191.923 49.79C192.587 49.805 193.251 49.821 193.915 49.834C194.493 49.846 195.043 49.864 195.491 49.46C195.679 49.291 195.663 48.969 195.491 48.798C195.065 48.373 194.486 48.38 193.915 48.363C193.251 48.344 192.587 48.328 191.923 48.31C190.595 48.275 189.267 48.239 187.939 48.204C185.283 48.133 182.629 48.111 179.972 48.098C179.119 48.095 179.126 49.381 179.972 49.419Z" fill="#FF4F92"/>
<path d="M199.101 49.297C200.192 49.267 201.283 49.237 202.375 49.206C202.9 49.191 203.426 49.18 203.951 49.162C204.541 49.142 205.227 49.071 205.623 48.591C205.793 48.385 205.812 48.12 205.623 47.914C205.206 47.459 204.541 47.405 203.951 47.417C203.425 47.428 202.9 47.446 202.375 47.461C201.284 47.491 200.193 47.521 199.101 47.552C198.63 47.565 198.229 47.944 198.229 48.424C198.229 48.887 198.628 49.31 199.101 49.297Z" fill="#FF4F92"/>
<path d="M207.817 49.317C208.773 49.348 209.729 49.379 210.685 49.41C211.164 49.426 211.64 49.432 212.119 49.429C212.619 49.425 213.27 49.502 213.696 49.194C214.156 48.862 214.156 48.283 213.696 47.951C213.269 47.643 212.62 47.72 212.119 47.716C211.64 47.712 211.164 47.719 210.685 47.735C209.729 47.766 208.773 47.797 207.817 47.828C207.415 47.841 207.072 48.161 207.072 48.573C207.073 48.987 207.414 49.304 207.817 49.317Z" fill="#FF4F92"/>
<path d="M152.122 56.478C152.86 56.434 153.601 56.436 154.338 56.489C154.526 56.502 154.714 56.519 154.902 56.539C154.989 56.548 155.075 56.559 155.162 56.569C155.363 56.591 155.047 56.55 155.265 56.582C155.638 56.637 156.008 56.702 156.377 56.78C156.85 56.88 157.4 56.641 157.516 56.134C157.62 55.679 157.378 55.09 156.87 54.995C155.304 54.703 153.712 54.602 152.123 54.734C151.669 54.772 151.228 55.108 151.251 55.606C151.269 56.054 151.634 56.507 152.122 56.478Z" fill="white"/>
<path d="M154.091 62.838C156.788 62.879 159.486 62.941 162.184 62.94C163.512 62.939 164.84 62.939 166.168 62.939C166.831 62.939 167.498 62.959 168.16 62.938C168.77 62.919 169.223 62.843 169.602 62.34C169.673 62.246 169.673 62.059 169.602 61.964C168.905 61.034 167.325 61.361 166.292 61.359C164.922 61.356 163.553 61.352 162.183 61.349C159.485 61.342 156.788 61.398 154.09 61.434C153.187 61.446 153.186 62.824 154.091 62.838Z" fill="white"/>
<path d="M172.318 62.611C172.608 62.535 172.9 62.471 173.196 62.421C173.259 62.41 173.323 62.401 173.386 62.391C173.481 62.377 173.471 62.379 173.355 62.394C173.397 62.388 173.44 62.383 173.482 62.378C173.62 62.362 173.759 62.348 173.897 62.338C174.238 62.312 174.575 62.313 174.914 62.263C174.991 62.252 175.089 62.234 174.955 62.256C175.04 62.242 175.126 62.236 175.211 62.226C175.485 62.193 175.656 62.094 175.851 61.902C176.008 61.747 176.075 61.435 175.936 61.244C175.783 61.035 175.639 60.862 175.374 60.791C175.224 60.751 175.067 60.724 174.914 60.698C174.563 60.639 174.219 60.649 173.865 60.674C173.194 60.721 172.523 60.825 171.871 60.989C171.445 61.097 171.146 61.597 171.284 62.023C171.426 62.462 171.863 62.73 172.318 62.611Z" fill="white"/>
<path d="M172.937 62.517C173.582 62.522 174.228 62.527 174.873 62.533C175.228 62.536 175.572 62.545 175.924 62.486C176.308 62.422 176.733 62.415 176.968 62.054C177.064 61.907 177.064 61.68 176.968 61.533C176.734 61.174 176.308 61.166 175.924 61.101C175.572 61.042 175.229 61.051 174.873 61.054C174.228 61.059 173.582 61.064 172.937 61.07C172.559 61.073 172.196 61.401 172.213 61.793C172.231 62.188 172.531 62.514 172.937 62.517Z" fill="white"/>
<path d="M181.089 62.271C186.628 62.536 192.187 62.419 197.731 62.43C203.195 62.442 208.66 62.503 214.123 62.633C215.696 62.671 217.268 62.713 218.841 62.76C220.383 62.806 222.024 63.024 223.558 62.851C224.274 62.77 224.593 61.633 223.745 61.472C222.396 61.215 220.956 61.283 219.587 61.236C218.222 61.188 216.856 61.144 215.49 61.103C212.717 61.02 209.944 60.947 207.171 60.889C201.627 60.773 196.075 60.661 190.529 60.732C187.381 60.772 184.231 60.814 181.091 61.057C180.315 61.118 180.301 62.234 181.089 62.271Z" fill="white"/>
<path d="M148.465 71.361C152.962 71.351 157.459 71.306 161.955 71.222C164.203 71.18 166.451 71.129 168.699 71.069C169.781 71.04 170.863 71.009 171.946 70.975C173.071 70.94 174.293 71.05 175.351 70.656C175.887 70.457 175.945 69.685 175.351 69.507C174.265 69.182 173.075 69.362 171.946 69.394C170.864 69.425 169.782 69.453 168.699 69.48C166.451 69.535 164.203 69.581 161.955 69.617C157.459 69.69 152.962 69.724 148.465 69.723C147.411 69.722 147.409 71.363 148.465 71.361Z" fill="#FF8B00"/>
<path d="M178.563 70.749C179.44 70.741 180.317 70.734 181.194 70.726C181.659 70.722 182.121 70.736 182.582 70.663C183.019 70.594 183.521 70.591 183.871 70.295C184.06 70.135 184.06 69.766 183.871 69.607C183.53 69.32 183.054 69.314 182.629 69.247C182.151 69.171 181.677 69.181 181.194 69.176C180.317 69.168 179.44 69.161 178.563 69.153C178.146 69.149 177.746 69.523 177.765 69.951C177.784 70.38 178.116 70.753 178.563 70.749Z" fill="#FF8B00"/>
<path d="M186.73 70.993C190.573 71.266 194.41 71.356 198.262 71.287C200.164 71.253 202.064 71.186 203.964 71.085C204.913 71.034 205.862 70.975 206.811 70.909C207.779 70.842 208.783 70.834 209.729 70.605C209.449 70.491 209.168 70.377 208.888 70.263C209.418 71.146 210.884 70.884 210.729 69.736C210.665 69.265 210.262 68.897 209.778 68.897C209.264 68.897 208.981 69.255 208.813 69.69C209.052 69.508 209.292 69.325 209.531 69.143C208.591 69.088 207.626 69.248 206.687 69.32C205.739 69.392 204.789 69.454 203.84 69.508C201.941 69.616 200.04 69.69 198.138 69.731C194.338 69.812 190.528 69.773 186.73 69.654C185.861 69.625 185.878 70.932 186.73 70.993Z" fill="#FF8B00"/>
<path d="M213.849 2.94297L264.191 3.87497C266.339 3.91497 267.964 5.83197 267.65 7.95797L266.777 13.875C266.518 15.633 265.003 16.931 263.226 16.918L212.745 16.546C210.569 16.53 208.915 14.583 209.251 12.433L210.263 5.95597C210.538 4.19697 212.069 2.91097 213.849 2.94297Z" stroke="#555555" stroke-width="1.3618" stroke-miterlimit="10"/>
<path d="M154.858 5.52498L154.579 7.19598C154.12 9.95298 156.215 12.476 159.01 12.53L195.847 13.243C198.23 13.289 200.25 11.501 200.493 9.12998L200.703 7.08498C200.979 4.40098 198.886 2.06098 196.188 2.03598L159.42 1.69698C157.164 1.67598 155.229 3.29998 154.858 5.52498Z" stroke="#555555" stroke-width="1.0988" stroke-miterlimit="10"/>
<path d="M211.755 0.709971L262.097 1.64197C264.245 1.68197 265.87 3.59897 265.556 5.72497L264.683 11.642C264.424 13.4 262.909 14.698 261.132 14.685L210.651 14.312C208.474 14.296 206.821 12.349 207.157 10.199L208.169 3.72197C208.443 1.96297 209.975 0.676971 211.755 0.709971Z" fill="black"/>
<path d="M215.227 5.44895C216.088 5.51595 216.95 5.58296 217.811 5.64996C218.225 5.68196 218.64 5.73095 219.055 5.72895C219.431 5.72695 219.984 5.81896 220.272 5.52496C220.337 5.45896 220.37 5.32496 220.308 5.24396C220.052 4.90496 219.561 4.91995 219.172 4.86595C218.736 4.80495 218.298 4.78796 217.859 4.76196C216.982 4.71096 216.105 4.65896 215.227 4.60796C214.684 4.57596 214.692 5.40695 215.227 5.44895Z" fill="#FF8B00"/>
<path d="M221.829 5.81999C222.185 5.87999 222.555 5.93399 222.917 5.93399C223.114 5.93399 223.319 5.88898 223.514 5.85398C223.626 5.83398 223.73 5.80899 223.825 5.74099C223.904 5.68399 223.979 5.62299 224.055 5.56299C224.15 5.48699 224.176 5.33099 224.145 5.22099C224.11 5.09499 224.017 5.01799 223.899 4.97499C223.828 4.94899 223.757 4.91499 223.684 4.89299C223.584 4.86199 223.483 4.86899 223.38 4.87199C223.221 4.87699 223.057 4.86099 222.898 4.87799C222.583 4.90999 222.267 4.92099 221.951 4.91099C221.72 4.90399 221.525 5.09299 221.496 5.31299C221.469 5.51899 221.601 5.78099 221.829 5.81999Z" fill="#FF8B00"/>
<path d="M226.033 5.73398C228.155 5.80198 230.267 5.74597 232.39 5.74097C233.434 5.73797 234.477 5.74998 235.52 5.78898C236.422 5.82198 237.581 6.10197 238.426 5.72597C238.636 5.63197 238.582 5.34397 238.426 5.23697C237.704 4.74097 236.482 4.85697 235.641 4.81797C234.558 4.76797 233.474 4.74697 232.39 4.74197C230.264 4.73197 228.154 4.78098 226.033 4.92798C225.519 4.96298 225.509 5.71698 226.033 5.73398Z" fill="#FF8B00"/>
<path d="M240.796 5.71095C241.826 5.77795 242.886 5.92495 243.906 5.70795C244.211 5.64295 244.172 5.21395 243.906 5.12895C242.914 4.80995 241.827 4.85595 240.796 4.81795C240.555 4.80895 240.35 5.02995 240.35 5.26395C240.349 5.51895 240.554 5.69495 240.796 5.71095Z" fill="#FF8B00"/>
<path d="M246.339 5.78299C248.254 5.71999 250.178 5.73799 252.093 5.80699C253.034 5.84099 253.974 5.89699 254.913 5.97599C255.382 6.01499 255.85 6.06899 256.319 6.10999C256.75 6.14699 257.192 6.21999 257.559 5.94699C257.733 5.81699 257.764 5.61899 257.623 5.44799C257.343 5.11099 256.946 5.07699 256.535 5.02299C256.033 4.95699 255.526 4.92199 255.021 4.88399C254.083 4.81399 253.142 4.76599 252.202 4.73999C250.24 4.68699 248.293 4.77499 246.34 4.95899C245.821 5.00799 245.801 5.80099 246.339 5.78299Z" fill="#FF8B00"/>
<path d="M215.068 10.389C215.762 10.206 216.443 10.246 217.153 10.275C217.9 10.305 218.648 10.317 219.394 10.339C220.888 10.381 222.383 10.424 223.877 10.466C225.33 10.507 226.783 10.548 228.235 10.59C228.982 10.611 229.729 10.632 230.476 10.655C231.136 10.675 231.816 10.811 232.362 10.385C232.516 10.265 232.502 9.97296 232.362 9.85096C231.869 9.41996 231.222 9.51396 230.601 9.49996C229.812 9.48296 229.024 9.46496 228.235 9.44696C226.699 9.41196 225.164 9.37697 223.628 9.34197C222.134 9.30797 220.639 9.27396 219.145 9.23896C217.723 9.20596 216.191 9.02396 214.817 9.47896C214.243 9.66796 214.475 10.545 215.068 10.389Z" fill="#34B77E"/>
<path d="M234.339 10.525C234.841 10.549 235.344 10.556 235.847 10.543C236.128 10.536 236.4 10.508 236.679 10.467C236.969 10.424 237.253 10.358 237.458 10.131C237.636 9.93399 237.595 9.65999 237.378 9.51299C237.134 9.34699 236.842 9.34599 236.557 9.35599C236.309 9.36399 236.066 9.38199 235.819 9.40399C235.327 9.44699 234.833 9.47199 234.339 9.47999C234.065 9.48499 233.803 9.71799 233.815 10.004C233.828 10.296 234.045 10.511 234.339 10.525Z" fill="#34B77E"/>
<path d="M240.266 10.2899C245.322 10.5929 250.39 10.6649 255.453 10.7839C256.034 10.7979 256.615 10.7999 257.196 10.7929C257.647 10.7879 258.321 10.832 258.518 10.314C258.913 9.27895 256.947 9.43895 256.449 9.43095C253.919 9.39095 251.386 9.45495 248.855 9.43595C245.991 9.41395 243.13 9.38795 240.266 9.41395C239.699 9.41995 239.707 10.2569 240.266 10.2899Z" fill="#34B77E"/>
<path d="M161.162 8.15198C161.729 7.47498 163.295 5.59398 164.234 6.35898C165.222 7.16298 166.019 8.20698 166.962 9.06198C167.587 9.62898 168.329 9.85898 169.058 9.33498C169.504 9.01498 170.026 7.91099 170.65 8.03499C171 8.10399 171.335 8.46999 171.612 8.67499C171.926 8.90699 172.251 9.09698 172.646 9.13798C173.06 9.18098 173.412 9.06598 173.744 8.81998C173.917 8.69198 174.079 8.46198 174.277 8.37698C174.58 8.24798 174.932 8.40798 175.208 8.52698C176.259 8.97898 177.205 9.24798 178.364 9.07598C179.529 8.90198 180.567 8.34498 181.578 7.76998C182.015 7.52098 181.724 6.76099 181.227 6.93799C180.324 7.26099 179.397 7.58198 178.454 7.76598C177.477 7.95598 176.673 7.87598 175.754 7.50298C175.015 7.20298 174.254 6.96999 173.528 7.43799C173.272 7.60299 173.072 7.93798 172.748 7.89898C172.48 7.86598 172.189 7.61699 171.966 7.47999C171.468 7.17299 170.924 6.88699 170.319 6.96599C169.709 7.04499 169.286 7.48698 168.895 7.92198C168.739 8.09498 168.562 8.35599 168.342 8.45299C167.979 8.61199 167.659 8.24099 167.404 8.02099C166.587 7.31699 165.768 6.61598 164.957 5.90598C164.298 5.32898 163.681 5.10798 162.868 5.56098C161.988 6.04998 161.209 6.79498 160.565 7.55798C160.22 7.96798 160.814 8.56698 161.162 8.15198Z" fill="#97B5CE"/>
<path d="M84.837 47.3679C82.113 47.5559 79.3731 47.7439 76.6571 47.4589C73.9411 47.1739 71.2251 46.3899 69.0101 44.7939C68.2411 45.0369 67.9071 46.2479 67.8421 47.0519C67.7131 48.6299 66.6201 49.9939 65.3121 50.8849C64.0041 51.7759 62.4791 52.2829 61.0051 52.8609C56.7551 54.5259 52.769 56.862 49.238 59.755C46.211 62.236 45.062 66.3249 44.345 70.1719C42.061 82.4329 45.4771 94.9729 49.1201 106.901C50.4331 111.199 51.7821 115.495 53.5361 119.633C54.4001 121.672 55.4071 123.73 57.0791 125.181C58.5891 126.491 60.5221 127.198 62.4401 127.762C73.6351 131.053 85.9891 130.239 96.6561 125.507C107.467 126.887 117.951 126.216 128.528 123.586C129.122 123.438 129.738 123.272 130.198 122.868C130.915 122.238 131.076 121.196 131.128 120.243C131.328 116.505 130.512 112.718 128.79 109.395C124.384 110.461 120.355 106.706 118.082 102.784C115.809 98.8619 115.22 94.2299 114.364 89.7779C112.911 82.2189 110.569 74.8469 107.665 67.7189C106.767 65.5149 105.785 63.285 104.161 61.544C101.335 58.513 97.0671 57.4349 93.2401 55.8439C89.4141 54.2539 85.227 51.4939 84.837 47.3679Z" fill="#F7EBE4"/>
<path d="M52.3729 65.646C53.7509 66.451 54.883 67.558 55.903 68.774C56.411 69.38 56.882 70.016 57.335 70.665C57.78 71.303 58.183 72.001 58.713 72.573C58.827 72.696 58.988 72.54 58.929 72.406C58.598 71.659 58.0759 70.976 57.6019 70.313C57.1439 69.672 56.667 69.043 56.155 68.444C55.125 67.238 53.904 66.178 52.504 65.424C52.358 65.345 52.2299 65.562 52.3729 65.646Z" fill="#C9C4C0"/>
<path d="M58.8719 74.748C59.8619 76.84 60.3629 79.099 60.7969 81.36C61.2599 83.771 61.6839 86.189 62.1489 88.6C62.6219 91.049 63.0889 93.499 63.5849 95.944C63.8329 97.166 64.0749 98.389 64.3299 99.609C64.5829 100.821 64.7749 102.074 65.1899 103.242C65.2629 103.449 65.6068 103.433 65.5948 103.187C65.5338 101.923 65.2299 100.667 64.9989 99.425C64.7699 98.199 64.5299 96.974 64.2949 95.749C63.8169 93.259 63.3099 90.775 62.8089 88.29C62.3179 85.855 61.8119 83.421 61.2839 80.994C60.8029 78.785 60.2039 76.597 59.1629 74.579C59.0619 74.386 58.7809 74.555 58.8719 74.748Z" fill="#C9C4C0"/>
<path d="M65.406 103.514C66.132 103.601 66.831 103.899 67.394 104.366C67.967 104.841 68.259 105.476 68.696 106.058C69.123 106.627 69.702 106.856 70.345 107.104C70.762 107.265 71.178 107.426 71.595 107.587C71.975 107.734 72.376 107.945 72.789 107.955C72.963 107.959 73.078 107.716 72.938 107.596C72.64 107.341 72.239 107.232 71.877 107.094C71.46 106.935 71.042 106.777 70.625 106.618C70.223 106.465 69.769 106.34 69.435 106.059C69.144 105.814 68.954 105.474 68.756 105.155C68.001 103.945 66.834 103.154 65.407 102.99C65.071 102.952 65.076 103.475 65.406 103.514Z" fill="#C9C4C0"/>
<path d="M65.1178 103.237C64.8068 103.46 64.5089 103.7 64.2269 103.959C63.9519 104.212 63.7199 104.518 63.5279 104.837C63.4909 104.899 63.5088 104.983 63.5658 105.025C63.6278 105.071 63.6989 105.061 63.7579 105.014C64.0349 104.79 64.3159 104.57 64.5829 104.334C64.7139 104.218 64.8489 104.106 64.9869 103.998C64.9919 103.994 65.0218 103.971 65.0008 103.987C65.0198 103.973 65.0379 103.958 65.0569 103.944C65.0909 103.918 65.1249 103.893 65.1589 103.868C65.2349 103.812 65.3129 103.758 65.3909 103.704C65.5069 103.624 65.5708 103.463 65.4878 103.334C65.4148 103.22 65.2408 103.149 65.1178 103.237Z" fill="#C9C4C0"/>
<path d="M64.7169 102.62C63.5369 102.924 62.3659 103.318 61.3259 103.964C61.1459 104.076 61.2599 104.388 61.4749 104.317C62.6109 103.944 63.7149 103.48 64.8519 103.108C65.1599 103.008 65.0349 102.538 64.7169 102.62Z" fill="#C9C4C0"/>
<path d="M74.14 108.397C77.276 109.875 80.619 110.578 83.987 111.299C85.637 111.652 87.309 112.005 88.914 112.531C90.508 113.053 92.065 113.96 92.437 115.72C92.508 116.056 93.074 115.988 93.044 115.638C92.743 112.085 88.112 111.432 85.372 110.901C81.656 110.182 77.771 109.721 74.308 108.108C74.115 108.017 73.945 108.305 74.14 108.397Z" fill="#C9C4C0"/>
<path d="M92.368 115.541C91.394 116.428 90.693 117.514 90.232 118.746C89.8 119.9 89.5 121.363 89.922 122.557C89.973 122.703 90.233 122.745 90.261 122.557C90.348 121.986 90.376 121.41 90.436 120.835C90.501 120.219 90.649 119.614 90.841 119.025C91.221 117.865 91.872 116.766 92.684 115.856C92.874 115.642 92.581 115.347 92.368 115.541Z" fill="#C9C4C0"/>
<path d="M92.5829 116.13C93.3229 116.536 94.1299 116.817 94.9659 116.942C95.3799 117.004 95.7979 117.042 96.2159 117.025C96.5919 117.01 97.1529 117.037 97.4329 116.752C97.3289 116.765 97.2239 116.779 97.1199 116.792C97.1569 116.809 97.1929 116.825 97.2299 116.842C97.4829 116.957 97.7949 116.797 97.7529 116.491C97.7159 116.219 97.3569 116.077 97.1579 116.289C97.1279 116.321 97.0969 116.354 97.0669 116.386C97.1709 116.373 97.2759 116.359 97.3799 116.346C97.0399 116.185 96.5839 116.323 96.2149 116.326C95.8459 116.329 95.4749 116.317 95.1089 116.266C94.3429 116.16 93.5999 115.915 92.9199 115.551C92.5419 115.348 92.2039 115.922 92.5829 116.13Z" fill="#C9C4C0"/>
<path d="M89.7339 123.794C89.7439 124.47 89.8689 125.143 90.1119 125.774C90.2309 126.082 90.3679 126.39 90.5509 126.666C90.7409 126.954 90.9629 127.199 91.2069 127.443C91.3319 127.568 91.4979 127.386 91.3949 127.255C91.1989 127.003 91.0319 126.721 90.8759 126.442C90.7249 126.172 90.5759 125.904 90.4609 125.617C90.2269 125.036 90.0939 124.42 90.0699 123.794C90.0599 123.579 89.7309 123.577 89.7339 123.794Z" fill="#C9C4C0"/>
<path d="M100.813 74.71C101.737 78.738 102.677 82.762 103.597 86.791C104.071 88.866 104.443 90.954 104.642 93.074C104.836 95.142 104.895 97.22 105.069 99.29C105.386 103.052 106.175 106.761 107.392 110.336C108.407 113.317 109.745 116.222 111.584 118.789C113.53 121.505 116.145 124.13 119.358 125.255C119.516 125.31 119.612 125.069 119.47 124.988C116.682 123.386 114.278 121.481 112.366 118.87C110.515 116.342 109.131 113.484 108.092 110.536C106.86 107.041 106.011 103.356 105.752 99.656C105.61 97.627 105.595 95.592 105.474 93.562C105.36 91.647 105.089 89.763 104.696 87.885C103.76 83.408 102.496 78.99 101.358 74.56C101.268 74.205 100.731 74.355 100.813 74.71Z" fill="#C9C4C0"/>
<path d="M35.446 98.326C40.717 107.004 53.11 116.989 62.494 120.866C72.614 125.047 81.547 132.962 87.599 142.087C91.163 147.461 93.353 153.621 96.541 159.227C99.728 164.833 104.305 170.128 110.507 171.892C118.101 174.051 120.897 184.563 118.864 192.191C116.83 199.819 110.494 205.748 103.312 209.026C96.13 212.304 88.129 213.276 80.253 213.827C64.986 214.895 48.289 214.071 36.509 204.301C26.2 195.751 21.836 182.158 18.065 169.307C16.045 162.422 14.031 155.312 14.803 148.178C15.361 143.022 17.348 138.143 19.315 133.344C22.853 124.714 29.255 105.303 35.446 98.326Z" fill="#F8B75F"/>
<path d="M115.182 120.064C112.714 118.502 109.745 117.539 106.861 118.006C104.492 118.39 102.328 119.894 99.9279 119.866C99.2669 119.858 98.6069 119.813 97.9479 119.759C97.9169 120.11 97.8639 120.458 97.7919 120.801C97.5039 122.171 96.9369 123.464 96.3729 124.745L96.2319 125.008C96.8149 125.118 97.3929 125.259 97.9569 125.417C99.9679 125.982 101.988 126.718 104.075 126.635C105.648 126.572 107.183 126.044 108.757 126.062C110.668 126.084 112.473 126.908 114.357 127.232C116.87 127.664 119.531 127.169 121.721 125.862C119.699 123.755 117.65 121.626 115.182 120.064Z" fill="#F68C77"/>
<path d="M97.217 116.759C97.866 118.325 97.688 119.957 97.274 121.557C97.085 122.289 96.863 123.013 96.619 123.728C96.5 124.076 96.376 124.421 96.244 124.763C96.143 125.024 95.988 125.297 96.072 125.58C96.111 125.711 96.251 125.759 96.368 125.701C96.633 125.569 96.723 125.25 96.826 124.991C96.979 124.608 97.122 124.22 97.257 123.83C97.526 123.057 97.77 122.273 97.972 121.479C98.391 119.83 98.448 118.114 97.766 116.528C97.633 116.218 97.086 116.444 97.217 116.759Z" fill="#C9C4C0"/>
<path d="M106.35 129.959C112.83 131.857 119.226 134.036 125.514 136.498C128.746 137.763 131.948 139.103 135.116 140.519C137.993 141.805 140.983 143.041 143.629 144.771C145.05 145.7 146.355 146.811 147.405 148.151C148.451 149.487 149.035 150.969 149.514 152.578C149.567 152.755 149.841 152.725 149.84 152.534C149.82 149.752 147.744 147.163 145.681 145.502C143.141 143.457 140.091 142.143 137.145 140.804C130.832 137.933 124.392 135.339 117.847 133.044C114.099 131.73 110.316 130.517 106.505 129.399C106.145 129.294 105.992 129.854 106.35 129.959Z" fill="#1C1E3B"/>
<path d="M131.95 162.686C132.962 160.87 134.35 159.244 135.942 157.91C136.156 157.73 135.871 157.355 135.641 157.519C134.758 158.149 133.935 158.852 133.222 159.67C132.507 160.49 131.874 161.381 131.336 162.327C131.11 162.725 131.727 163.086 131.95 162.686Z" fill="#1C1E3B"/>
<path d="M132.163 164.452C132.723 164.063 133.328 163.742 133.971 163.514C134.609 163.289 135.283 163.094 135.959 163.036C135.882 162.849 135.804 162.662 135.727 162.475C135.272 163.049 134.757 163.557 134.162 163.986C133.567 164.416 132.909 164.744 132.294 165.14C132.036 165.305 132.198 165.714 132.504 165.638C133.269 165.447 133.926 165.013 134.543 164.533C135.145 164.065 135.703 163.525 136.192 162.94C136.359 162.74 136.268 162.361 135.96 162.379C135.213 162.424 134.475 162.521 133.768 162.774C133.063 163.026 132.394 163.367 131.781 163.797C131.614 163.914 131.536 164.129 131.645 164.316C131.742 164.482 131.995 164.569 132.163 164.452Z" fill="#1C1E3B"/>
<path d="M165.989 158.515C166.5 158.086 167.01 157.657 167.521 157.228C167.769 157.02 168.016 156.812 168.264 156.604C168.527 156.383 168.764 156.138 169.005 155.893C169.16 155.735 168.956 155.445 168.761 155.577C168.484 155.765 168.205 155.946 167.947 156.16C167.682 156.379 167.417 156.599 167.153 156.818C166.631 157.25 166.109 157.682 165.587 158.114C165.469 158.212 165.486 158.415 165.587 158.516C165.703 158.632 165.871 158.615 165.989 158.515Z" fill="#1C1E3B"/>
<path d="M166.436 159.988C167.104 159.752 167.795 159.631 168.503 159.639C169.203 159.646 169.91 159.777 170.599 159.892C170.942 159.949 171.174 159.507 170.846 159.307C169.486 158.48 167.649 158.603 166.2 159.131C165.975 159.213 165.822 159.433 165.89 159.677C165.95 159.896 166.209 160.068 166.436 159.988Z" fill="#1C1E3B"/>
<path d="M93.6689 129.588L95.202 126.675C95.593 125.931 96.364 125.466 97.205 125.466H120.139L129.185 90.489C129.605 88.866 131.092 87.75 132.768 87.801L175.644 89.1C177.908 89.169 179.543 91.293 179.031 93.499L171.377 126.428C170.976 128.153 169.442 129.375 167.671 129.38L93.6689 129.588Z" fill="#555555"/>
<path d="M155.713 96.459C154.595 95.864 153.23 96.163 152.342 97.029C151.406 97.942 151.051 99.463 151.452 100.704C151.855 101.952 153.055 102.828 154.384 102.718C155.083 102.66 155.753 102.355 156.234 101.838C156.764 101.269 156.997 100.511 157.047 99.748C157.096 99.006 156.922 98.244 156.57 97.591C156.221 96.943 155.711 96.522 155.096 96.144C154.504 95.78 154.022 96.812 154.718 97.04C155.106 97.167 155.442 97.572 155.649 97.908C155.892 98.303 156.049 98.759 156.087 99.222C156.174 100.288 155.723 101.369 154.616 101.656C153.77 101.875 152.881 101.451 152.5 100.672C152.088 99.829 152.22 98.739 152.733 97.971C153.268 97.171 154.423 96.681 155.335 97.105C155.765 97.304 156.144 96.688 155.713 96.459Z" fill="#555555"/>
<path d="M41.042 101.206C45.811 114.103 59.827 119.071 70.566 125.734C73.602 127.618 76.481 129.732 79.032 132.242C81.43 134.601 83.542 137.237 85.411 140.031C87.273 142.815 88.898 145.752 90.361 148.763C91.688 151.497 92.847 154.307 94.129 157.062C96.678 162.537 100.04 168.749 106.159 170.778C106.59 170.921 106.735 170.282 106.341 170.116C100.989 167.859 97.836 163.045 95.382 158.005C94.083 155.338 92.992 152.575 91.754 149.88C90.386 146.9 88.855 143.989 87.116 141.208C83.597 135.578 79.19 130.642 73.724 126.842C68.045 122.894 61.701 120.048 55.849 116.382C49.895 112.653 44.188 107.778 41.628 101.044C41.491 100.682 40.905 100.836 41.042 101.206Z" fill="#CC842E"/>
<path d="M99.098 159.93C98.663 160.296 98.356 160.777 98.169 161.311C97.992 161.818 97.873 162.495 98.147 162.986C98.243 163.159 98.567 163.143 98.601 162.927C98.641 162.676 98.631 162.426 98.646 162.173C98.66 161.942 98.698 161.723 98.768 161.498C98.906 161.055 99.16 160.648 99.492 160.325C99.6 160.22 99.598 160.036 99.492 159.93C99.379 159.816 99.214 159.833 99.098 159.93Z" fill="#CC842E"/>
<path d="M108.272 169.744C112.447 170.048 116.624 170.299 120.804 170.519C122.765 170.622 124.731 170.702 126.694 170.615C128.646 170.529 130.697 170.338 132.539 169.656C132.914 169.517 132.771 168.965 132.372 169.052C130.406 169.478 128.475 169.83 126.458 169.915C124.495 169.997 122.529 169.917 120.568 169.82C116.469 169.616 112.373 169.411 108.271 169.273C107.966 169.262 107.972 169.722 108.272 169.744Z" fill="#CC842E"/>
<path d="M107.088 171.353C108.142 171.766 109.171 172.248 110.15 172.819C111.116 173.383 112.023 174.046 112.939 174.687C113.183 174.858 113.452 174.486 113.251 174.282C111.636 172.651 109.402 171.534 107.209 170.914C106.921 170.833 106.822 171.249 107.088 171.353Z" fill="#CC842E"/>
<path d="M151.555 166.488C153.917 166.482 156.273 166.326 158.623 166.097C159.71 165.991 160.796 165.872 161.878 165.724C162.443 165.647 163.007 165.564 163.57 165.478C164.151 165.388 164.771 165.351 165.304 165.093C165.59 164.955 165.41 164.587 165.159 164.557C164.651 164.498 164.116 164.64 163.612 164.716C163.001 164.808 162.39 164.895 161.777 164.976C160.646 165.126 159.514 165.27 158.38 165.39C156.11 165.63 153.832 165.782 151.555 165.931C151.2 165.953 151.193 166.488 151.555 166.488Z" fill="#CC842E"/>
</g>
<defs>
<clipPath id="clip0_7_105">
<rect width="269" height="236" fill="white"/>
</clipPath>
</defs>
</svg>
