<svg width="75" height="103" viewBox="0 0 75 103" fill="none" xmlns="http://www.w3.org/2000/svg">
<g clip-path="url(#clip0_11_285)">
<path d="M63.2559 5.82074C64.8131 5.82074 65.877 6.77832 66.1776 8.47957H60.3071C60.6625 6.77832 61.7269 5.82074 63.2559 5.82074ZM70 9.96697C70 5.58019 67.4337 2.89623 63.3384 2.89623C59.2431 2.89623 56.2943 5.66037 56.2943 9.70128C56.2943 13.9811 59.3252 16.7453 64.0751 16.7453C66.0126 16.7453 67.8426 16.2673 69.2072 15.4167C69.4252 15.283 69.4801 15.044 69.3976 14.805L68.6065 12.8648C68.4692 12.4921 68.1156 12.3868 67.7602 12.5724C66.7493 13.1038 65.4944 13.3962 64.2927 13.3962C62.0546 13.3962 60.5251 12.4119 60.2522 10.9245H69.4524C69.753 10.9245 69.9987 10.6856 69.9987 10.3931V9.96697H70ZM47.2294 13.3695C45.2915 13.3695 43.9802 11.9073 43.9802 9.78146C43.9802 7.65566 45.2915 6.11322 47.2294 6.11322C49.1674 6.11322 50.4512 7.60222 50.4512 9.78146C50.4512 11.9607 49.1399 13.3695 47.2294 13.3695ZM48.4584 2.89623C46.6561 2.89623 45.1542 3.58806 44.0351 4.86321V0.531445C44.0351 0.238993 43.7896 0 43.4892 0H40.5952C40.2949 0 40.0494 0.238993 40.0494 0.531445V15.9214C40.0494 16.2139 40.2949 16.4529 40.5952 16.4529H43.4892C43.7896 16.4529 44.0351 16.2139 44.0351 15.9214V14.6981C45.1542 16.0267 46.6561 16.7453 48.4859 16.7453C52.0906 16.7453 54.6564 13.9009 54.6564 9.78146C54.6564 5.66197 52.0906 2.89623 48.4584 2.89623ZM33.4685 16.055C32.1572 19.272 30.0287 21 27.2978 21C26.8343 21 26.3692 20.9466 25.9332 20.8664C25.6877 20.8129 25.5504 20.6006 25.5504 20.3616V18.1022C25.5504 17.7296 25.8509 17.4906 26.261 17.5441C26.4516 17.5707 26.6712 17.5707 26.8618 17.5707C28.2264 17.5707 29.0727 16.9859 29.3198 15.8695L24.8415 4.04086C24.6784 3.58962 24.9513 3.217 25.4148 3.217H28.6092C28.8272 3.217 29.0468 3.35063 29.1001 3.56288L31.4757 11.4843L34.1242 3.56288C34.1791 3.35063 34.3971 3.217 34.6151 3.217H37.7546C38.2181 3.217 38.491 3.6431 38.3279 4.0676L33.4685 16.0566V16.055ZM19.3523 5.20913C20.1162 4.0393 21.2628 3.16195 22.8745 3.16195C23.1474 3.16195 23.2847 3.3475 23.2847 3.69338V6.80345C23.2847 7.09593 23.0392 7.33493 22.7388 7.33493H21.4017C20.0645 7.33493 19.3539 8.0786 19.3539 9.43554V15.9214C19.3539 16.2139 19.1085 16.4529 18.8081 16.4529H15.9416C15.6412 16.4529 15.3957 16.2139 15.3957 15.9214V3.72012C15.3957 3.42769 15.6412 3.1887 15.9416 3.1887H18.8081C19.1085 3.1887 19.3539 3.42769 19.3539 3.72012V5.20913H19.3523ZM9.98729 0.531445V3.1887H13.2091C13.5095 3.1887 13.7549 3.42769 13.7549 3.72012V5.92611C13.7549 6.21854 13.5095 6.45753 13.2091 6.45753H9.98729V11.3223C9.98729 12.4387 10.6704 13.0236 12.0076 13.0236C12.308 13.0236 12.6632 12.9969 13.0185 12.9167C13.4287 12.8365 13.7549 13.1022 13.7549 13.5016V15.6808C13.7549 15.9198 13.5919 16.1321 13.3173 16.1856C12.4161 16.3444 11.515 16.4513 10.7786 16.4513C7.85718 16.4513 6 14.8837 6 12.4638V0.531445C6 0.238993 6.24547 0 6.54585 0H9.44144C9.74182 0 9.98729 0.238993 9.98729 0.531445Z" fill="#1EB720"/>
<path d="M37.5 103C58.2107 103 75 86.2107 75 65.5C75 44.7893 58.2107 28 37.5 28C16.7893 28 0 44.7893 0 65.5C0 86.2107 16.7893 103 37.5 103Z" fill="#FEFEFE"/>
<path d="M34.5187 61.5414H13.7947C11.9627 61.5414 11.3107 59.1153 12.8987 58.1979L43.9877 40.2509C45.5757 39.3335 47.3527 41.1104 46.4357 42.6987L36.0747 60.6457C35.7557 61.2005 35.1647 61.5414 34.5227 61.5414H34.5187Z" fill="#1EB720"/>
<path d="M55.8278 47.0865V82.9803C55.8278 84.8116 53.4018 85.4644 52.4838 83.876L42.1238 65.9291C41.8048 65.3743 41.8048 64.6925 42.1238 64.1377L52.4838 46.1908C53.4018 44.6024 55.8278 45.2552 55.8278 47.0865Z" fill="#1EB720"/>
<path d="M36.0707 69.425L46.4317 87.372C47.3497 88.9603 45.5727 90.7373 43.9837 89.8198L12.8987 71.8728C11.3107 70.9554 11.9627 68.5293 13.7947 68.5293H34.5187C35.1577 68.5293 35.7517 68.8702 36.0707 69.425Z" fill="#1EB720"/>
</g>
<defs>
<clipPath id="clip0_11_285">
<rect width="75" height="103" fill="white"/>
</clipPath>
</defs>
</svg>
